<?xml version="1.0" standalone="no"?>
<!DOCTYPE svg PUBLIC "-//W3C//DTD SVG 1.1//EN" "http://www.w3.org/Graphics/SVG/1.1/DTD/svg11.dtd" >
<svg xmlns="http://www.w3.org/2000/svg" xmlns:xlink="http://www.w3.org/1999/xlink" version="1.1">
<metadata>
Created by FontForge 20170731 at Fri Jan  1 02:30:17 1904
 By Aleksey,,,
2511995 Comicraft. All rights reserved. Unauthorized duplication and/or use is a violation of applicable laws.
</metadata>
<defs>
<font id="CCWildWordsRoman" horiz-adv-x="1094" >
  <font-face 
    font-family="CC Wild Words"
    font-weight="400"
    font-stretch="normal"
    units-per-em="4096"
    panose-1="2 11 114 0 0 0 0 0 0 0"
    ascent="3276"
    descent="-820"
    x-height="3154"
    cap-height="3187"
    bbox="-856 -541 6058 3408"
    underline-thickness="20"
    underline-position="-163"
    unicode-range="U+0020-F000"
  />
<missing-glyph horiz-adv-x="3072" 
d="M512 0v2560h2048v-2560h-2048zM2494 66v2428h-1916v-2428h1916z" />
    <glyph glyph-name=".notdef" horiz-adv-x="3072" 
d="M512 0v2560h2048v-2560h-2048zM2494 66v2428h-1916v-2428h1916z" />
    <glyph glyph-name=".null" horiz-adv-x="0" 
 />
    <glyph glyph-name="nonmarkingreturn" horiz-adv-x="0" 
 />
    <glyph glyph-name="space" unicode=" " horiz-adv-x="1720" 
 />
    <glyph glyph-name="exclam" unicode="!" horiz-adv-x="1679" 
d="M1507 3265q-50 -239 -83.5 -341.5t-115 -313.5t-145.5 -431q-77 -266 -128.5 -422.5t-105 -295.5t-143.5 -371q-17 -46 -53 -46q-27 0 -88.5 32.5t-87.5 37.5q26 253 50.5 402.5t35.5 232.5q3 27 51 327.5t68 434.5q48 288 62.5 459.5t15.5 232.5q52 78 175.5 141.5
t241.5 63.5q176 0 250 -143zM918 287q-63 -140 -215 -238t-285 -98q-73 6 -124.5 96t-51.5 191q0 50 20 98q45 101 135 188.5t197 138t201 50.5q64 -9 107.5 -92t43.5 -187q0 -84 -28 -147z" />
    <glyph glyph-name="quotedbl" unicode="&#x22;" horiz-adv-x="1884" 
d="M1565 2605q-171 -489 -230 -647t-118 -246q-36 -53 -74 -53q-14 0 -33.5 6.5t-41 15.5t-62 27t-72.5 29q-18 35 -72.5 73t-58.5 78q14 155 85.5 305t176 365t164.5 448q47 181 164 181q37 0 155 -33q160 -22 160 -119q0 -50 -59.5 -204.5t-83.5 -225.5zM950 3109
q-5 -156 -50.5 -269t-120 -291.5t-120.5 -406.5q-41 -192 -163 -192q-13 0 -148 28q-147 17 -147 140q0 49 16.5 113t69 227.5t53.5 167.5q42 143 92 350.5t96 288.5q41 69 99 69q35 0 204 -57q12 -19 62 -70.5t57 -97.5z" />
    <glyph glyph-name="numbersign" unicode="#" horiz-adv-x="2560" 
d="M2384 1335q24 -97 24 -139q0 -28 -41 -156q0 -128 -475 -180q3 -96 9.5 -229.5t11.5 -282.5q-9 -93 -40.5 -124t-123.5 -31q-51 4 -87.5 8t-66.5 17t-52.5 48t-31.5 103q5 0 5 458q-324 -22 -414 -45q-45 -8 -127 -32q9 -252 16 -422q-9 -93 -40.5 -124.5t-123.5 -31.5
q-51 4 -87.5 8t-66.5 17t-53 48.5t-30 102.5q-3 0 4 299q-98 -16 -135 -16q-88 0 -152 41q-82 118 -82 246q0 75 25 159q73 69 352 107q0 60 2 188t2 197q-152 -37 -229 -37q-94 0 -152 41q-82 118 -82 246q0 70 25 159q97 87 442 115q0 94 12 189.5t13 125.5q0 80 -29 193
q0 107 64 150.5t170 58.5q48 8 69 8q66 0 86 -98q41 -184 41 -357q0 -61 -8 -233l52 6t50 6q130 14 406 74q2 27 11 102.5t9 114.5q0 75 -28 188q0 107 63.5 150.5t169.5 58.5q56 9 70 9q66 0 86 -99q41 -197 41 -344q0 -69 -4 -106q85 12 160 12q155 0 208 -66
q25 -96 25 -139q0 -29 -41 -155q0 -119 -377 -168q-8 -134 -25.5 -229t-19.5 -177q168 33 291 33q155 0 209 -66zM1528 1737q-436 -35 -508 -54q-2 0 -8 -2t-8 -2q-7 -79 -19.5 -156t-17 -128t-4.5 -183q82 10 145 17.5t104 11.5q175 24 312 53q4 140 4 443z" />
    <glyph glyph-name="dollar" unicode="$" horiz-adv-x="2122" 
d="M1974 1602q25 -79 25 -164q0 -167 -76 -330.5t-190 -247.5q-304 -225 -607 -282q-4 -54 -4 -164q0 -129 -51 -165t-190 -36q-102 0 -139 51.5t-37 161.5q0 40 8 156q-244 44 -488 192q-119 91 -119 242q0 97 58 213q40 74 86 74q43 0 82 -62q70 -108 106 -115
q251 -131 434 -131q130 0 349 58q344 90 401 315q-3 58 -74.5 104t-171.5 52h-86q-102 0 -219.5 -10.5t-241.5 -27.5t-239 -32q-117 -12 -234 -12q-114 3 -190 156.5t-76 318.5q0 120 41 172q124 170 194 257t162 165t226 151l37 21q0 125 -4.5 243.5t-4.5 153.5
q0 79 21 135q31 86 135 86q15 0 61.5 -4.5t85.5 -7.5q21 -22 71.5 -53.5t64.5 -69.5q8 -94 8 -303q116 25 229 25t254 -25q94 -17 94 -156q0 -122 -64 -249t-128 -127q-27 0 -49 28q-30 39 -52 55t-67 19q-355 0 -557 -160q-46 -36 -108 -85t-112 -99t-83.5 -110t-36.5 -124
q4 -8 20 -8q15 0 54 11t73 18q246 60 303 66q198 16 320 16q269 0 385 -41q247 -90 311 -315z" />
    <glyph glyph-name="percent" unicode="%" horiz-adv-x="2507" 
d="M1151 2560q-66 -154 -141 -247.5t-160.5 -147t-202.5 -97.5q-119 -45 -225 -45q-157 0 -250 115q-94 133 -94 299q0 160 86 340q78 163 216 288.5t292 162.5q60 16 139 16q228 0 311 -188q70 -170 70 -295q0 -102 -41 -201zM856 2785q-20 66 -176 66q-70 -7 -144 -66.5
t-94 -154.5q0 -159 82 -185q187 0 262 115q70 97 70 225zM1622 1917q-56 -110 -181.5 -326.5t-194 -339.5t-136.5 -284q-43 -98 -133.5 -298t-154 -345.5t-105.5 -249.5q-75 -127 -135 -127q-41 0 -111 45q-38 23 -79 48t-65 57t-24 83q0 33 21 99q74 134 244 451.5
t404.5 771.5t383.5 771q17 36 126.5 254.5t168.5 357.5t78 240q42 131 180 131q53 0 143 -24q70 -20 98.5 -40t28.5 -67q0 -17 -8 -65q-26 -118 -84 -254t-112 -237.5t-175.5 -323t-177.5 -328.5zM1327 647q66 158 140.5 251.5t160.5 147t203 97.5q119 45 225 45
q159 0 250 -115q94 -117 94 -299q0 -169 -86 -340q-83 -165 -219.5 -290t-288.5 -164q-59 -17 -135 -17q-235 0 -311 193q-74 188 -74 299q0 94 41 192zM1626 426q16 -66 172 -66q72 9 147.5 68t94.5 154q0 78 -25.5 126t-60.5 58q-187 0 -262 -115q-66 -95 -66 -225z" />
    <glyph glyph-name="ampersand" unicode="&#x26;" horiz-adv-x="2933" 
d="M2998 1335q0 -80 -172.5 -136t-388.5 -81q57 -82 57 -176q0 -154 -139 -336q-365 -483 -930 -631q-286 -73 -528 -73q-394 0 -606 196q-205 186 -205 508q0 348 217 656q108 159 295 311q-199 95 -250 217q-65 168 -65 287q0 171 135 389q185 294 384.5 438t545.5 250
q146 45 303 45q178 0 333 -57t249 -177.5t94 -293.5q-14 -108 -34.5 -146.5t-84.5 -87.5q-106 -82 -226 -82q-176 0 -176 168q0 238 -200 238q-159 0 -375 -98.5t-334 -213.5q-12 -12 -86 -74t-108.5 -120.5t-34.5 -149.5q37 -135 184 -135q80 0 221 49q42 15 95 39.5
t105 41.5t157 38q40 8 65 8q101 0 177 -52.5t85 -143.5q0 -106 -44 -180.5t-111 -77.5q-165 -9 -396.5 -113t-424.5 -267t-257 -341q-20 -72 -20 -152q0 -180 114.5 -281.5t270.5 -140.5q246 0 552 106.5t513 307.5q127 127 127 180q0 35 -37 74q-63 -23 -115 -42
t-93.5 -29.5t-74.5 -10.5q-69 0 -119 45q-76 52 -124 133t-48 150q0 68 46 106q47 54 152 82.5t318 56t250 33.5q88 14 237 56t200.5 54.5t115.5 12.5q103 0 144 -70q20 -52 41.5 -101t29 -74t7.5 -54q0 -24 -13 -78z" />
    <glyph glyph-name="quotesingle" unicode="'" 
d="M950 3101q-14 -161 -57.5 -278.5t-127 -328.5t-138.5 -430q-47 -180 -164 -180q-36 0 -156 33q-151 22 -151 156q0 58 20.5 131.5t52 159.5t82.5 225q55 155 90.5 314t55.5 237.5t59 136.5q39 61 102 61q41 0 222 -65q17 -31 61 -79.5t49 -92.5z" />
    <glyph glyph-name="parenleft" unicode="(" horiz-adv-x="1970" 
d="M1262 -254q-214 30 -507 172t-472 401q-246 348 -246 852q0 486 225 988q140 316 325.5 565t418.5 420t497 239q65 21 139 21q213 0 213 -234q0 -41 -4.5 -71.5t-7.5 -42.5q-61 -146 -352 -217q-226 -54 -441 -190t-384 -382.5t-232 -595.5q-16 -92 -16 -201
q0 -298 133 -557.5t305 -384.5q286 -202 561 -237q225 -27 225 -213q-11 -113 -110.5 -222.5t-269.5 -109.5z" />
    <glyph glyph-name="parenright" unicode=")" horiz-adv-x="1778" 
d="M8 -4q53 -213 180 -213q49 0 119 29q306 127 519.5 279t402 423.5t356.5 714.5q111 292 111 586q0 358 -189 839q-89 225 -241 373.5t-307.5 219t-311.5 104.5q-18 3 -99.5 30t-133.5 27q-148 0 -242 -213q-37 -84 -37 -143q0 -76 53 -112t129 -49.5t162 -27.5
q324 -68 544.5 -199.5t291.5 -414.5q12 -93 12 -185q0 -467 -364 -1089q-254 -434 -799 -643q-172 -65 -172 -221q0 -55 16 -115z" />
    <glyph glyph-name="asterisk" unicode="*" horiz-adv-x="2089" 
d="M1679 2761q-8 -37 -10.5 -69t-6.5 -51.5t-24 -51.5q-134 -135 -331 -217q135 -86 178.5 -117.5t87.5 -91.5q57 -85 57 -99q0 -30 -110 -159q-91 -103 -217 -103q-26 0 -66 8q-68 30 -152 82q-13 -167 -77 -237q-51 -15 -94.5 -29.5t-72.5 -21.5t-63 -7q-55 0 -143 37
q-62 62 -62 193q0 51 25 205q-31 -21 -82 -58q-125 -90 -201 -90t-163 135q-58 69 -58 131q0 74 75 141t232 158q-41 29 -131 95q-139 94 -139 184q0 43 21 77.5t86 123.5q51 98 139 98q98 0 274 -143q0 165 21.5 248t93.5 83q160 54 225 54q26 0 107 -9q94 -44 94 -192
q0 -77 -21 -176q103 46 213 82q37 12 66 12q63 0 112.5 -51.5t116.5 -173.5z" />
    <glyph glyph-name="plus" unicode="+" horiz-adv-x="2089" 
d="M1425 2245q5 -41 5 -123q0 -132 -17 -254q185 53 266 53q116 0 160 -78q21 -121 21 -160q0 -59 -33 -188q0 -95 -131.5 -137t-380.5 -72q-48 -251 -66 -504q-11 -135 -57 -184t-131 -49q-14 0 -39 2t-51 5.5t-41 4.5q-193 0 -193 262q0 82 41 353q-237 -86 -340 -86
q-89 0 -139 45q-70 129 -70 290q0 76 21 185q60 71 194.5 96.5t411.5 50.5q1 16 6 186t12.5 238t30.5 125q53 123 205 123q57 0 164 -21q24 -30 80.5 -72.5t70.5 -90.5z" />
    <glyph glyph-name="comma" unicode="," 
d="M758 569q-29 -162 -58 -235t-124 -283t-170 -424q-61 -168 -164 -168q-39 0 -164 49q-123 29 -123 127q0 53 29 123.5t97 209t99 208.5q68 158 83.5 275.5t24.5 199t52 131.5q42 54 94 54q56 0 230 -86q12 -30 53 -83t41 -98z" />
    <glyph glyph-name="hyphen" unicode="-" horiz-adv-x="2089" 
d="M1835 1815q20 -117 20 -160q0 -64 -32 -189q0 -98 -139.5 -140t-391 -68t-317.5 -46q-49 -14 -188.5 -61.5t-217.5 -68.5t-139 -21q-85 0 -135 45q-70 129 -70 291q0 85 21 184q51 60 170 88.5t332.5 48.5t312.5 35q92 15 307.5 77t306.5 62q115 0 160 -77z" />
    <glyph glyph-name="period" unicode="." horiz-adv-x="1442" 
d="M958 471q-55 -164 -164.5 -278.5t-240.5 -114.5q-115 0 -182.5 57t-67.5 164q0 65 25 143q89 275 180 275q21 0 55.5 30t69 59.5t55.5 29.5q129 0 212 -61.5t83 -176.5q0 -61 -25 -127z" />
    <glyph glyph-name="slash" unicode="/" horiz-adv-x="1622" 
d="M1204 1880q-50 -98 -177.5 -326.5t-186.5 -339t-123 -260.5q-63 -147 -135.5 -309.5t-133 -298.5t-120.5 -285q-76 -127 -135 -127q-40 0 -111 46q-38 24 -79.5 50t-65 57t-23.5 81q0 36 20 98q38 78 115.5 238t251.5 519.5t300 622.5t304 635q35 75 137.5 277.5
t159 334.5t76.5 240q44 132 180 132q48 0 144 -25q70 -20 98.5 -40t28.5 -67q0 -11 -9 -65q-51 -221 -178 -500t-338 -688z" />
    <glyph glyph-name="zero" unicode="0" horiz-adv-x="3052" 
d="M2847 1397q-125 -298 -265 -506t-294 -345t-323 -227t-396 -176q-312 -114 -565 -114q-413 0 -639 295q-238 317 -238 749q0 421 217 869q131 269 334.5 511.5t449 409.5t502.5 229q182 46 352 46q266 0 472.5 -115.5t314.5 -372.5q180 -435 180 -749q0 -258 -102 -504z
M2580 2294q-95 348 -630 348q-94 0 -242 -16q-153 -14 -338.5 -92.5t-363 -218.5t-311 -343.5t-183.5 -455.5q-16 -77 -16 -173q0 -175 63.5 -332.5t164 -265t210.5 -147.5q82 -20 201 -20q287 0 593.5 134t512.5 455q356 551 356 959q0 58 -17 168z" />
    <glyph glyph-name="one" unicode="1" horiz-adv-x="1290" 
d="M1057 2990q16 -125 16 -258q0 -112 -17.5 -331.5t-23.5 -393.5q-5 -122 -23.5 -359.5t-24 -325t-5.5 -228.5q0 -20 2 -64t2 -67q8 -383 29 -840q-9 -103 -46.5 -139.5t-142.5 -36.5q-42 4 -85.5 9.5t-78 22.5t-58 55t-32.5 109q3 290 8 733.5t13 1286.5v381
q-129 -58 -189 -58q-57 0 -98.5 34t-105.5 118q-62 86 -62 139q0 52 45 84.5t160.5 81.5t190 88t141.5 107q58 57 131 57q89 0 167 -67t87 -138z" />
    <glyph glyph-name="two" unicode="2" horiz-adv-x="2601" 
d="M2462 2376q-34 -232 -117 -404t-207.5 -299t-259.5 -220t-399 -257q-171 -107 -313.5 -212t-251 -217.5t-177.5 -238.5q221 116 564 177t661 61q276 0 381 -41q59 -19 123.5 -121.5t64.5 -197.5q0 -164 -221 -164q-74 0 -115 8q-143 20 -299 20q-270 0 -610 -57
q-102 -18 -201.5 -58t-234.5 -105t-209.5 -94.5t-132.5 -29.5q-39 0 -66 17q-102 57 -227.5 226.5t-136.5 297.5q35 172 268 414.5t509.5 459t418.5 306.5q791 503 860 753q8 34 8 49q0 62 -47 100t-117.5 55t-149 23.5t-120.5 10.5q-82 8 -127 8q-180 0 -378.5 -55.5
t-407 -182.5t-406.5 -331q-47 -21 -82 -21q-82 0 -137 73.5t-55 135.5q0 170 47.5 269.5t165.5 177.5q223 148 428 239.5t406 132.5t411 41q191 0 430 -33q166 -40 312.5 -243t146.5 -473z" />
    <glyph glyph-name="three" unicode="3" horiz-adv-x="2839" 
d="M2621 1343q62 -101 62 -258q-3 -204 -119.5 -408t-322.5 -325q-230 -136 -405 -218.5t-387 -140.5t-486 -91q-107 -13 -193 -13q-268 0 -369 160q-102 158 -102 262q0 107 115 107q17 0 65 -8q297 0 627 60.5t594 172.5q343 147 561 340q82 76 82 147q0 79 -101 128
t-305 49q-12 0 -45 -2t-53 -2q-309 -19 -410 -28.5t-229 -37t-352 -90.5q-128 0 -193 77.5t-65 188.5q0 190 139 262q135 32 300.5 65.5t226 52t243.5 91.5q138 55 326 172t322 243.5t134 215.5q0 32 -16 53q-30 41 -151 69.5t-295 28.5q-328 0 -702.5 -105.5t-702.5 -336.5
q-54 -37 -119 -37q-143 0 -164 180q0 192 73 278.5t210 143.5q15 7 188.5 96t316.5 138.5t338 77.5q296 41 480 41q311 0 536 -99q160 -69 250 -216t90 -320q0 -185 -102 -336q-73 -105 -148.5 -185.5t-161.5 -157t-169 -149.5q96 -13 187 -26.5t150.5 -39t121 -88
t130.5 -182.5z" />
    <glyph glyph-name="four" unicode="4" horiz-adv-x="2826" 
d="M2740 1352q-48 -114 -71 -166.5t-55.5 -76.5t-101 -30.5t-247.5 -13.5q0 -356 29 -717q4 -41 4 -102q0 -82 -19 -118t-75.5 -90t-94.5 -108q-22 -28 -69 -28q-58 0 -115 41.5t-57 89.5q-25 161 -25 405q0 62 2 174t2 158q0 191 -24 274q-297 -53 -532.5 -95.5t-377 -74.5
t-289 -82.5t-305.5 -123.5q-92 44 -158 140.5t-99 213.5t-33 223q65 126 273.5 385.5t478.5 557t535 560.5t421 381q75 58 127 58q36 0 64 -21t95 -82q68 -3 150 -93t88 -177q-29 -204 -29 -430q0 -114 12 -310t17 -309q2 -39 4 -116t4 -113q149 29 266 29q230 0 230 -123
q0 -43 -25 -90zM1819 1487q0 100 2 284t2 269q0 303 -13 442q-349 -247 -714 -604t-502 -657q109 54 309 98.5t502.5 95t413.5 72.5z" />
    <glyph glyph-name="five" unicode="5" horiz-adv-x="2560" 
d="M2425 1409q29 -96 29 -209q0 -207 -95 -416t-233 -338q-246 -227 -548.5 -342.5t-619.5 -115.5q-370 0 -700 155q-139 111 -139 291q0 134 74 279q39 73 73 73q25 0 48.5 -30t59.5 -87t67.5 -88.5t70.5 -35.5q187 -103 381 -103q192 0 467 107q294 116 502.5 302.5
t234.5 381.5q-3 106 -82.5 133t-273.5 39q-62 4 -176 4q-290 0 -495 -65t-570 -238q-102 0 -242.5 149t-171.5 261q0 141 68.5 459t160 590.5t152.5 309.5q81 46 189 67.5t309.5 39t259.5 24.5q80 9 277 36t314 38.5t236 11.5q179 0 315 -32q99 -23 99 -156q0 -151 -94 -311
q-49 -82 -78 -82q-13 0 -51 28t-87 50t-124 28q-233 0 -603 -40t-622 -91q-72 -115 -134 -275t-101.5 -318.5t-39.5 -241.5q213 127 554 194.5t569 67.5q341 -9 514 -115t256 -389z" />
    <glyph glyph-name="six" unicode="6" horiz-adv-x="2519" 
d="M2388 1712q90 -219 90 -434q0 -263 -135 -471q-144 -230 -290 -378.5t-328.5 -248t-442.5 -180.5q-165 -53 -336 -53q-256 0 -449 139t-288 406q-90 264 -90 536q0 629 430 1266q168 249 355.5 438.5t382 300.5t376.5 121q18 0 47 2t43 2q516 0 516 -410q-3 -89 -93 -194
t-177 -105q-86 0 -127 123q-91 70 -193 70q-47 0 -125 -19t-96 -22q-330 -180 -519 -375.5t-279 -395.5t-168 -487q119 178 293 319t369 234t382 136q144 32 270 32q438 0 582 -352zM2122 1360q-60 217 -393 217q-58 0 -148 -8q-149 -15 -378 -135.5t-414 -348.5t-211 -548
q137 -127 335 -127q177 0 377 90.5t379.5 223t312.5 263.5q16 27 60.5 75t66 89.5t21.5 114.5q0 57 -8 94z" />
    <glyph glyph-name="seven" unicode="7" horiz-adv-x="2003" 
d="M1991 3076q155 -185 155 -295q0 -50 -24 -101t-88 -150.5t-97 -153.5q-134 -223 -278.5 -532t-265.5 -599q-103 -244 -169.5 -466.5t-96.5 -367t-42 -206.5q-35 -138 -121.5 -214.5t-185.5 -76.5q-40 0 -78 12q-139 52 -139 140q0 65 86 237q123 356 243 664.5t231 554.5
t237.5 494.5t304.5 572.5q-114 8 -193 8q-579 0 -1142 -164q-21 -6 -41.5 -45.5t-39.5 -62t-71 -31.5q-114 28 -194.5 154.5t-87.5 222.5q0 194 118 225q654 187 1016 201q125 5 354.5 16.5t321.5 11.5q222 0 287 -49z" />
    <glyph glyph-name="eight" unicode="8" horiz-adv-x="2757" 
d="M2630 795q-151 -253 -331.5 -411.5t-385.5 -247t-488 -161.5q-286 -73 -528 -73q-394 0 -606 196q-221 196 -221 488q0 272 204 565q104 154 295 311q-131 62 -192 209q-78 189 -78 377q0 231 119 418q185 294 384.5 438t545.5 250q146 45 286 45q166 0 311.5 -60.5
t245 -179t136.5 -288.5q0 -184 -65.5 -391t-188.5 -375q344 -56 479 -287q176 -292 176 -496q0 -165 -98 -327zM1991 2576q-150 172 -398 172q-183 0 -375 -88.5t-321 -210.5q-14 -27 -93 -117.5t-126 -170t-47 -174.5q45 -156 295 -156q25 0 172 12q395 35 622 262
q135 135 203 231.5t68 239.5zM2273 1352q-45 99 -121.5 133.5t-201.5 34.5q-69 0 -209 -9q-174 -8 -448 -96t-504.5 -234.5t-292.5 -320.5q-21 -86 -21 -135q0 -87 38 -146.5t99.5 -93t141 -54t135.5 -34.5q82 -8 168 -8q248 0 502 68t428 239q125 125 209.5 281.5
t84.5 292.5q0 57 -8 82z" />
    <glyph glyph-name="nine" unicode="9" horiz-adv-x="2519" 
d="M2376 2552q102 -282 102 -619q0 -673 -401 -1265q-227 -338 -552.5 -508t-643.5 -189q-17 0 -47 -2t-43 -2q-517 0 -517 410q3 58 46 128.5t105.5 120.5t119.5 50q86 0 127 -123q116 -90 250 -90q30 0 163 20q250 103 404.5 202.5t254.5 227t170 302.5t138 444
q-117 -174 -277.5 -289t-339 -182t-386.5 -115q-149 -29 -250 -29q-218 0 -392 89.5t-251 279.5q-90 216 -90 434q0 265 135 471q220 351 441.5 531t598.5 297q132 41 275 41q185 0 358.5 -78t304 -222.5t197.5 -334.5zM2007 2466q-195 225 -496 225q-141 0 -292 -51.5
t-281.5 -134t-232.5 -183.5q-9 -16 -94.5 -120t-137 -209t-51.5 -228q60 -217 393 -217q58 0 148 8q186 21 399.5 98.5t382.5 246.5q126 126 194 251.5t68 313.5z" />
    <glyph glyph-name="colon" unicode=":" 
d="M877 2089q-57 -168 -166 -280.5t-240 -112.5q-250 0 -250 221q0 65 25 143q89 275 180 275q21 0 55.5 30t69 59.5t55.5 29.5q129 0 212 -61.5t83 -176.5q0 -59 -24 -127zM856 471q-42 -93 -127 -170t-186.5 -121.5t-186.5 -44.5q-73 6 -124.5 97t-51.5 190q0 53 21 98
q69 155 228.5 266t303.5 111q63 -9 107.5 -91t44.5 -188q0 -85 -29 -147z" />
    <glyph glyph-name="semicolon" unicode=";" 
d="M758 569q-29 -162 -58 -235t-124 -283t-170 -424q-61 -168 -164 -168q-39 0 -164 49q-123 29 -123 127q0 53 29 123.5t97 209t99 208.5q68 158 83.5 275.5t24.5 199t52 131.5q42 54 94 54q56 0 230 -86q12 -30 53 -83t41 -98zM836 1987q-57 -167 -166 -280.5t-240 -113.5
q-250 0 -250 222q0 65 25 143q88 274 180 274q21 0 55.5 30t69 59.5t55.5 29.5q129 0 212 -61.5t83 -175.5q0 -59 -24 -127z" />
    <glyph glyph-name="less" unicode="&#x3c;" horiz-adv-x="2335" 
d="M2150 3031q66 -60 66 -115q0 -52 -51 -109t-174 -165q-154 -135 -244.5 -208t-267 -210t-344 -273t-369.5 -313q100 -179 258 -350t362.5 -328.5t444.5 -295.5q36 -21 132 -62t151 -74q40 -59 40 -127q0 -116 -106 -262q-78 -106 -172 -106q-34 0 -66 12
q-296 144 -843 639q-556 503 -656 651q-53 136 -53 234q0 88 44 151t131 131.5t210 163.5q429 345 636 513.5t295 248t122 127.5q132 180 303 180q92 0 151 -53z" />
    <glyph glyph-name="equal" unicode="=" horiz-adv-x="2089" 
d="M1835 1516q20 -117 20 -160q0 -64 -32 -189q0 -98 -139.5 -140t-391 -68t-317.5 -46q-49 -14 -188.5 -61.5t-217.5 -68.5t-139 -21q-85 0 -135 45q-70 129 -70 291q0 85 21 184q51 60 170 88.5t332.5 48.5t312.5 35q92 15 307.5 77t306.5 62q115 0 160 -77zM1835 2466
q20 -117 20 -160q0 -65 -32 -188q0 -97 -139.5 -140t-393.5 -69t-315 -45q-90 -28 -209 -69t-197 -62t-139 -21q-85 0 -135 45q-70 129 -70 291q0 85 21 184q51 60 170 88.5t332.5 48.5t312.5 35q87 14 259.5 62.5t230 63t124.5 14.5q115 0 160 -78z" />
    <glyph glyph-name="greater" unicode="&#x3e;" horiz-adv-x="2335" 
d="M2167 2105q57 -147 57 -245q0 -77 -37.5 -130.5t-111 -110.5t-199.5 -153q-387 -313 -778 -733q-178 -194 -252.5 -305.5t-95.5 -180t-29 -79.5q-126 -180 -299 -180q-97 0 -156 53q-90 78 -90 139q0 67 168 230q234 291 384.5 463t272.5 288.5t370.5 327t320.5 272.5
q-352 372 -1250 770q-25 0 -66 -14t-65 -14q-34 0 -69 20q-54 77 -54 189q0 162 78 282q78 107 172 107q36 0 66 -13q40 -19 278 -122t435 -202.5t315 -191.5q160 -124 322.5 -232t221 -147t91.5 -88z" />
    <glyph glyph-name="question" unicode="?" horiz-adv-x="2593" 
d="M2597 2900q74 -124 74 -279q0 -164 -78 -344.5t-221 -343.5q-170 -194 -321.5 -318.5t-399.5 -279.5q-86 -54 -197 -125t-180.5 -112t-138.5 -70q-77 0 -154 65t-125.5 159t-48.5 169q0 88 65 111q165 61 418 184q268 130 406 205t258 163t241 214q144 152 144 254
q0 125 -205 164q-61 4 -205 4q-345 0 -727.5 -52.5t-623.5 -136.5q-25 -30 -64 -78.5t-77.5 -77t-76.5 -28.5q-96 0 -180 217q-41 113 -41 217q0 222 180 271q302 84 609.5 126.5t705.5 57.5q359 0 612.5 -87t350.5 -249zM1552 369q-54 -163 -164 -278.5t-241 -115.5
q-250 0 -250 222q0 65 25 143q88 274 180 274q21 0 55.5 30t69 59.5t55.5 29.5q129 0 212 -61.5t83 -175.5q0 -61 -25 -127z" />
    <glyph glyph-name="at" unicode="@" horiz-adv-x="3023" 
d="M2744 1126q-94 -195 -187 -264t-230 -96q-156 0 -264.5 97t-108.5 300q-141 -132 -250 -233t-238 -176t-274 -82q-122 0 -197.5 42t-113.5 99t-95 174q-36 73 -36 180q0 138 56.5 299t147.5 287q101 137 173.5 207t228.5 186q200 148 273 182t190 60q56 8 82 8
q151 0 255.5 -111t104.5 -303q-5 -120 -34.5 -251.5t-35.5 -202.5q0 -127 18 -199t89 -108q23 -13 49 -13q83 0 123 102.5t90 295.5q29 112 29 233q0 269 -125 489t-289 281q-49 12 -123 12q-183 0 -418 -69.5t-471 -228.5t-397 -410q-344 -526 -344 -963q0 -103 16 -184
q106 -385 680 -385q104 0 197 12q102 12 186.5 60t239.5 161q84 62 155 62q88 0 160 -119q41 -64 41 -156q0 -171 -135 -221q-83 -74 -138 -111t-108.5 -56.5t-145 -37.5t-149.5 -32q-208 -49 -372 -49q-593 0 -803 503q-90 222 -137.5 404t-47.5 366q0 271 107 525
q167 401 363.5 649t420 387.5t531.5 253.5q315 119 581 119q425 0 660 -303q246 -319 246 -775q0 -434 -226 -897zM1913 1864q-31 123 -139 123q-71 0 -160 -54q-142 -82 -201.5 -122t-106.5 -91.5t-114 -142.5q-98 -134 -98 -250q0 -92 69 -135q72 -66 164 -66
q235 0 500 394q60 120 73 172.5t13 171.5z" />
    <glyph glyph-name="A" unicode="A" horiz-adv-x="2363" 
d="M2372 119q-78 -230 -234 -230q-111 0 -188 123q-52 61 -64 169t-28 295t-60 323q-394 -31 -732 -89t-583 -186q-147 -206 -147 -295q0 -7 2 -47t2 -88q-73 -110 -229 -110q-107 0 -182.5 59.5t-75.5 169.5q0 62 28 131q65 176 126 307t219 456t245 527q145 336 209 481
t134 274.5t156.5 254.5t266.5 358q33 50 66.5 97.5t85 81.5t135.5 34q24 0 82 -8q112 -22 153.5 -78t49.5 -127t18 -159q75 -340 134 -647.5t137 -726.5t132 -690.5t142 -659.5zM1733 1319q-25 105 -68.5 363.5t-84.5 429t-105 288.5q-67 -25 -133 -120t-165 -274t-145 -245
q-91 -132 -137 -205t-68.5 -118.5t-45.5 -105.5t-64 -169q6 0 520 103q159 30 292.5 36.5t203.5 16.5z" />
    <glyph glyph-name="B" unicode="B" horiz-adv-x="2916" 
d="M2671 1642q61 -97 61 -217q0 -184 -127.5 -397t-335.5 -389q-148 -129 -271 -215.5t-253.5 -157.5t-272.5 -136.5t-382 -174.5q-226 -98 -435 -98q-81 0 -143 20q-51 17 -138 52.5t-124 74.5q-37 49 -37 98q0 45 36 136t38 143q0 96 -6.5 189t-6.5 151q0 57 5 94
q4 88 4 211t4 191q-54 89 -54 172q0 85 78 258q0 105 6.5 321.5t6.5 423.5q-127 76 -127 188q0 65 38 121t89 88q107 70 211 112t243 77.5t369 85.5q243 57 549 57q254 0 471 -41q136 -28 234 -149t98 -285q0 -160 -111 -324q-68 -98 -113.5 -139.5t-122 -90.5t-133.5 -101
q72 -10 177 -25.5t178 -46t147.5 -97.5t149.5 -180zM2060 2597q-84 65 -360 65q-152 0 -330 -26.5t-352.5 -82.5t-325.5 -145q-24 -138 -24 -352q0 -163 24 -225q380 128 819 328q193 86 381.5 206t188.5 195q0 22 -21 37zM1892 1573q-300 -28 -456 -47t-335.5 -59
t-420.5 -115q12 -49 12 -164q0 -97 -12 -332t-12 -324q0 -112 16 -151q200 51 370 109.5t364 155t388 231.5q561 383 561 573q0 131 -299 131q-110 0 -176 -8z" />
    <glyph glyph-name="C" unicode="C" horiz-adv-x="2519" 
d="M2208 2142q-23 -93 -87 -140.5t-147 -47.5q-101 0 -171 74t-70 217q57 356 57 364q0 49 -33 49q-14 0 -76.5 -20t-99.5 -29q-122 -47 -303 -193.5t-358.5 -345t-310 -414.5t-175.5 -403q-69 -313 -69 -389q0 -77 69 -184q153 -221 443 -221q231 0 486.5 110.5
t582.5 294.5q100 74 200 74q121 0 152 -115q12 -55 12 -118q0 -228 -196 -324q-104 -49 -249 -133t-268 -140t-356 -128q-133 -41 -283 -41q-195 0 -379.5 76.5t-322 218.5t-203.5 331q-65 178 -65 369q0 525 544 1327q252 374 556.5 609.5t578.5 250.5q17 0 47 2t43 2
q156 0 270 -45t180 -159t66 -312q0 -194 -65 -467z" />
    <glyph glyph-name="D" unicode="D" horiz-adv-x="2716" 
d="M2576 1892q-67 -162 -146 -289.5t-178.5 -252t-252.5 -314.5q-156 -198 -286 -336t-272.5 -250t-331 -221t-450.5 -233q-32 -16 -73 -16q-112 0 -192 113.5t-111 189.5l49 2150q-29 0 -84.5 -16.5t-79.5 -16.5q-84 0 -94 180q0 131 39 205.5t100 111.5t164 73
q257 90 473.5 131t464.5 41q76 0 209 -9q259 -16 414 -36.5t307 -91t241 -207.5q180 -273 180 -512q0 -173 -90 -394zM2191 2630q-272 53 -602 53q-531 0 -872 -152q-41 -253 -41 -676q0 -127 4 -383t4 -378q0 -211 -12 -402q18 -12 49 -12q191 0 704 442q222 192 525 607
q186 252 289.5 435t103.5 302q0 134 -152 164z" />
    <glyph glyph-name="E" unicode="E" horiz-adv-x="2654" 
d="M2494 909q-62 -169 -290 -245q-204 -66 -372.5 -142.5t-312 -155t-394 -222.5t-498.5 -279q-64 -33 -131 -33q-117 0 -198 82t-81 238q0 81 12 224t29.5 322.5t27 323t9.5 260.5q0 758 53 1147q-61 48 -61 160q0 92 52 186t153 154q336 112 491.5 157.5t296 72
t424.5 69.5q140 32 209 32q196 0 196 -176q0 -53 -24 -139q-30 -98 -78 -98q-7 0 -37 4t-53 4q-32 0 -82 -12q-353 -93 -536 -157t-496 -208q-66 -140 -66 -364q0 -111 8 -201q134 41 306.5 105.5t390 144.5t403 131t342.5 65q94 -10 94 -94q0 -16 -5 -52t-7 -54
q-19 -189 -143 -246q-118 -55 -380.5 -158t-411.5 -165.5t-316 -152t-297 -196.5q-33 -76 -49.5 -277t-16.5 -366q299 80 738 254q69 26 257.5 107t337.5 136.5t314 100.5q49 16 102 16q123 0 123 -135q0 -81 -33 -168z" />
    <glyph glyph-name="F" unicode="F" horiz-adv-x="2417" 
d="M2351 3011q-46 -199 -225 -213q-277 -25 -496 -58t-466 -116t-439 -228q-10 -60 -26 -139.5t-23 -132.5t-8 -121q-3 -91 -3.5 -163.5t-0.5 -110.5q937 357 1507 442q86 -28 86 -193q-17 -106 -22 -128t-29.5 -47t-100.5 -70q-105 -60 -268 -118.5t-403.5 -144
t-436 -189.5t-358.5 -249q-29 -203 -29 -459q0 -176 13 -401q-28 -179 -168 -242q-46 -20 -107 -20q-135 0 -135 106q-12 129 -12 328q0 369 32 713q27 313 48.5 718.5t37.5 616.5q-139 97 -139 188q0 50 37 148q26 70 109 118t133 66q264 83 472.5 144t431.5 115t426 86
t370 32q73 0 110 -4q94 -34 94 -168q0 -52 -12 -106z" />
    <glyph glyph-name="G" unicode="G" horiz-adv-x="3092" 
d="M2818 1942q102 -113 102 -267q0 -86 -38.5 -143t-104.5 -57q-9 0 -11 4t-5 4q-19 0 -90 -29q-40 -133 -176 -390t-263 -433q-125 -171 -267.5 -296t-281.5 -205.5t-263.5 -125.5t-231.5 -65q-132 -25 -266 -25q-258 0 -448.5 100t-272.5 305q-70 164 -70 492
q0 483 131 807q77 189 198.5 385t270.5 377t324.5 345t353.5 286q314 213 602 213q72 0 139 -13q197 -33 316 -90.5t119 -232.5q0 -72 -29 -160q-53 -189 -78 -280.5t-61 -135t-119 -43.5q-159 27 -214.5 71.5t-55.5 113.5q0 27 12 91t12 101q0 41 -8 61q-13 46 -86 46
q-134 0 -369.5 -150.5t-486.5 -439.5q-95 -108 -234 -332t-238.5 -448t-105.5 -363q0 -313 89 -455.5t288 -142.5q524 10 979 442q96 93 204 263.5t132 256.5q-186 -19 -267 -35t-154.5 -30t-238.5 -29q-102 25 -163.5 121.5t-61.5 198.5q0 61 25 98q57 46 119 58t274.5 42
t368.5 72q394 94 557 94q116 0 143 -32z" />
    <glyph glyph-name="H" unicode="H" horiz-adv-x="2851" 
d="M2621 147q0 -315 -204 -315q-31 -12 -66 -12q-91 0 -176.5 44.5t-85.5 98.5q-12 73 -12 168q0 180 51 585t51 529q0 71 -12 115q-908 -99 -1385 -381q-8 -74 -8 -139q0 -69 6 -245t6 -263q0 -175 -16 -262q-4 -46 -34 -70.5t-72 -35.5t-90 -14.5t-95 -6.5q-13 0 -42 -2
t-44 -2q-82 0 -131 73q-33 102 -33 230q0 66 25 282.5t25 388.5q0 52 -2.5 108t-2.5 89q0 220 16.5 520.5t16.5 446.5q0 292 -49 602q-8 48 -8 69q0 93 47.5 132t144.5 69q94 25 127 25q156 0 156 -181q12 -135 12 -249q0 -93 -10 -293t-10 -330q0 -180 8 -287
q192 70 444 142.5t525 139t444 99.5q0 133 4 228.5t10.5 222t6.5 200.5q0 235 -54 451q19 101 81.5 153t148.5 52q143 0 221 -127q45 -190 45 -447q0 -134 -15.5 -366.5t-17.5 -358.5v-114q12 -238 14 -405.5t5.5 -480.5t9.5 -490t24 -386z" />
    <glyph glyph-name="I" unicode="I" horiz-adv-x="2273" 
d="M2105 2990q-19 -243 -127 -278q-98 -33 -262 -33q-186 0 -348 -66q-27 -184 -52 -471.5t-42 -623t-17 -629.5q0 -258 9 -373q276 53 528 53q54 0 168 -8q70 -26 70 -102q0 -12 -29 -152q-43 -175 -266 -192q-89 -8 -252 -44.5t-268 -50.5q-37 -28 -173 -28
q-230 -51 -339 -115q-55 -24 -115 -24q-116 0 -201.5 85.5t-85.5 188.5q0 49 16 82q36 74 139.5 105.5t164.5 37.5q117 41 286 86q-24 577 -24 1086q0 631 41 1020q-251 -16 -350.5 -45.5t-169.5 -40.5q-89 0 -159.5 98.5t-70.5 171.5q0 85 22.5 119.5t116.5 97.5
q91 28 151.5 38t239 34t326.5 51q643 119 848 119q44 0 201 -17q37 -32 37 -73q0 -16 -5.5 -47t-7.5 -60z" />
    <glyph glyph-name="J" unicode="J" horiz-adv-x="2920" 
d="M2925 2925q0 -290 -177 -304q-2 2 -12.5 5.5t-44.5 3.5q-69 0 -266 -33q37 -473 37 -733q0 -259 -54 -1090q-19 -333 -172 -602q-117 -205 -471 -205q-106 0 -381 25q-186 16 -367.5 73.5t-341.5 141.5t-302 186q-93 70 -132.5 122.5t-39.5 152.5q0 69 24 180
q27 106 98.5 202.5t118.5 96.5q37 0 37 -90q0 -131 148.5 -241t358 -185.5t444.5 -130.5q85 -21 184 -21q232 0 389 172q94 143 94 389v136q0 94 4 143q8 139 8 336q0 103 -4.5 195t-11.5 187t-16 224q-4 96 -29 258q-59 -9 -172.5 -27t-171.5 -33.5t-144.5 -51
t-236.5 -105.5q-169 0 -274 172q-50 78 -50 152q0 124 115 163q227 91 356.5 131t376.5 103q136 35 250 55t268 46t301 59q132 0 193.5 -75.5t65.5 -182.5z" />
    <glyph glyph-name="K" unicode="K" horiz-adv-x="2785" 
d="M2531 643q111 -84 111 -201q0 -61 -25 -110q-80 -197 -237 -197q-45 0 -111 25q-312 278 -550 410t-597 253q-174 58 -286 58q-99 0 -209 -45q-17 -92 -17 -189q0 -118 36.5 -324t45.5 -307q0 -139 -200 -139q-38 0 -86 8q-185 36 -185 238q25 377 25 983q0 360 8 598
v668q0 129 12 282q6 88 59.5 159t116.5 83q140 29 152 29q111 0 111 -172q16 -109 16 -230q0 -157 -39 -381t-39 -311q0 -72 21 -164q58 27 288.5 198.5t325.5 260.5q167 155 311 309t227.5 254.5t171 216t113.5 146.5q109 102 176 102q50 0 123 -49q62 -44 62 -160
q0 -98 -41 -200t-99 -148q-206 -212 -335.5 -350t-234.5 -254t-231.5 -261t-332.5 -384q149 -49 250 -97t266.5 -143t269.5 -150q118 -60 221.5 -109.5t171.5 -90t164 -115.5z" />
    <glyph glyph-name="L" unicode="L" horiz-adv-x="2363" 
d="M2159 766q28 -65 28 -115q0 -84 -61 -127q-64 -47 -172 -85.5t-302.5 -94.5t-320.5 -102q-161 -59 -278 -112.5t-271 -129t-236.5 -107.5t-139.5 -32q-20 0 -46 8q-127 38 -127 188q0 37 25 219.5t25 329.5q0 410 36 1139q9 229 9 614q0 426 -9 500q0 182 75 281.5
t184 99.5q108 0 148 -38t40 -138q0 -61 -12 -148q-42 -374 -59.5 -630.5t-24 -498.5t-7.5 -609.5t-4 -591.5q165 36 312 78.5t381 116.5t359.5 111t242.5 58q58 0 93.5 -15.5t53.5 -40t32 -61.5t26 -67z" />
    <glyph glyph-name="M" unicode="M" horiz-adv-x="3297" 
d="M3207 393q0 -260 -172 -327q-45 -17 -78 -17q-80 0 -141 57t-68 156q-12 165 -26.5 481.5t-33.5 532.5t-61.5 428.5t-119.5 409.5q-53 -181 -144 -479t-131 -394q-130 -322 -198 -583t-105.5 -406t-89.5 -195q-119 -90 -270 -90q-164 0 -250 127q-22 196 -58 366
t-76.5 319t-104.5 398.5t-113 493.5q-49 -106 -112 -196t-104 -172.5t-96 -270.5q-58 -199 -74.5 -330.5t-30 -255.5t-67.5 -299q-95 -122 -200 -122q-51 0 -111 16q-74 0 -113 95.5t-39 219.5q0 29 9 103q55 343 128 584t195 572t193.5 592t109.5 599q15 122 98.5 216.5
t217.5 94.5q75 0 159 -37q97 -40 122.5 -82t25.5 -143v-156q10 -633 41 -860q29 -213 76.5 -411.5t103.5 -376.5t94 -297q120 243 191.5 432.5t112.5 332t124.5 451.5t169.5 586q37 116 61.5 264.5t44.5 212.5t79 125q79 49 229 49q121 0 214 -33t110 -94q8 -33 8 -98
q0 -18 -4 -112t-4 -191q8 -277 20.5 -456t41 -338t89.5 -394q131 -514 131 -832q0 -27 -2 -111t-2 -155z" />
    <glyph glyph-name="N" unicode="N" horiz-adv-x="2744" 
d="M2580 3015q13 -53 13 -107q0 -65 -37 -252t-37 -342q0 -90 4 -143q21 -248 21 -520q0 -193 -14.5 -480t-14.5 -454q0 -205 8 -324q0 -14 2 -42t2 -40q0 -259 -106 -291q-9 -3 -61.5 -26t-78.5 -23q-40 0 -81 41q-84 33 -174 101.5t-191 165.5t-201 203t-229 243
q-347 368 -811 1053q-4 -161 -24.5 -342.5t-20.5 -354.5q0 -19 2 -68t2 -79q11 -424 29 -647q0 -154 -52 -222.5t-129 -68.5q-71 0 -125.5 56t-54.5 149q1 236 7.5 431.5t18.5 414.5t17.5 408t5.5 466v389q0 260 -37 438q-16 66 -16 91q0 149 221 225q38 0 83 10t57 10
q36 0 73 -32q52 -51 97 -149t155.5 -360.5t165.5 -355.5q93 -157 216.5 -365.5t232 -358.5t250 -302.5t346.5 -329.5q61 311 61 697q0 122 -7 366t-9 379q-5 262 -5 647q0 144 63 213.5t155 69.5q82 0 143.5 -51.5t64.5 -136.5z" />
    <glyph glyph-name="O" unicode="O" horiz-adv-x="3105" 
d="M2970 1348q-176 -385 -377.5 -631t-433 -388t-541.5 -247q-199 -70 -418 -70q-257 0 -483.5 102.5t-388.5 291.5q-150 175 -229 389.5t-79 445.5q0 369 197 737q229 425 583.5 737t764.5 402q160 33 327 33q211 0 411 -55.5t357.5 -174.5t239.5 -299q188 -399 188 -741
q0 -267 -118 -532zM2634 2232q-105 340 -721 340q-141 0 -258 -12q-168 -16 -363 -85.5t-379.5 -197.5t-325 -321.5t-194.5 -439.5q-16 -72 -16 -148q0 -170 78.5 -315.5t199 -243.5t246.5 -141q147 -29 303 -29q327 0 654.5 119.5t533.5 412.5q270 375 270 791
q0 112 -28 270z" />
    <glyph glyph-name="P" unicode="P" horiz-adv-x="2593" 
d="M2597 2859q74 -124 74 -279q0 -164 -78 -344.5t-221 -343.5q-170 -194 -321.5 -318.5t-399.5 -279.5q-162 -99 -254.5 -150.5t-243.5 -130t-239.5 -130.5t-192.5 -129q-8 -62 -8 -148q0 -55 8 -138t8 -140q0 -32 -8 -148q-8 -97 -19.5 -136t-37 -58.5t-91.5 -51.5
q-90 -40 -155 -40q-160 0 -160 200q0 49 12 123q49 268 49 508v217q0 115 5 188q0 184 -8.5 567t-8.5 523q0 171 -16 274q-117 -40 -152 -40q-69 0 -82 90q0 390 262 467q286 79 570.5 113t724.5 50h90q315 0 557.5 -81t335.5 -234zM2195 2257q144 152 144 254
q0 125 -205 164q-178 12 -369 12q-615 0 -1003 -135q-74 -212 -74 -864v-197q88 0 255 48.5t347 135.5q268 130 406 205t258 163t241 214z" />
    <glyph glyph-name="Q" unicode="Q" horiz-adv-x="3105" 
d="M2970 1348q-219 -473 -484 -750q189 -248 410 -463q20 -36 20 -82q0 -116 -155 -217q-82 -53 -148 -53q-59 0 -123 41q-47 33 -352 491q-223 -137 -520 -233q-199 -70 -418 -70q-257 0 -483.5 102.5t-388.5 291.5q-150 175 -229 389.5t-79 445.5q0 369 197 737
q229 425 583.5 737t764.5 402q160 33 327 33q211 0 411 -55.5t357.5 -174.5t239.5 -299q188 -399 188 -741q0 -267 -118 -532zM2634 2232q-105 340 -721 340q-141 0 -258 -12q-168 -16 -363 -85.5t-379.5 -197.5t-325 -321.5t-194.5 -439.5q-16 -72 -16 -148
q0 -170 78.5 -315.5t199 -243.5t246.5 -141q113 -29 295 -29q342 0 643 115q-51 76 -246 344q-45 63 -45 164q0 159 94 241q105 90 209 90q126 0 160 -143q71 -207 217 -463q96 88 164 184q270 381 270 791q0 112 -28 270z" />
    <glyph glyph-name="R" unicode="R" horiz-adv-x="2929" 
d="M2789 2396q-33 -225 -142 -416t-248.5 -332t-289 -259.5t-323.5 -253.5q156 -95 293.5 -200t306.5 -247.5t215 -179.5q139 -170 139 -291q0 -106 -106 -106q-60 0 -148 41q-309 208 -473.5 305t-344.5 158.5t-456 105.5q-97 16 -196 16q-73 0 -324 -32q-33 -225 -33 -324
q0 -27 2.5 -67t2.5 -76q0 -52 -13 -185q-63 -172 -213 -172q-66 0 -112.5 40.5t-46.5 103.5q-21 70 -21 192q0 66 9 174.5t22.5 231t22.5 231t12 227.5q4 247 15 525.5t20 491t10 388.5q-63 -28 -111 -28q-69 0 -106 42t-37 93q0 163 56 266t177 180q40 26 128 49t138 33
q455 82 873 82q386 0 864 -70q101 -24 204.5 -123.5t170.5 -243t67 -288.5q0 -53 -4 -82zM2462 2421q8 24 8 37q0 91 -166.5 149t-308.5 72q-338 33 -533 33q-418 0 -729 -119q-37 -211 -37 -582q0 -101 4.5 -307.5t4.5 -376.5q92 7 265.5 64t349.5 133t282 143
q752 478 860 754z" />
    <glyph glyph-name="S" unicode="S" horiz-adv-x="3011" 
d="M2777 1462q53 -99 53 -213q0 -140 -71.5 -283.5t-184 -274.5t-235.5 -233.5t-221 -158.5q-249 -143 -454.5 -230.5t-364 -123t-300.5 -35.5q-123 0 -270 29q-102 43 -200.5 203.5t-98.5 303.5q0 69 25 123q50 95 86 95q19 0 53 -50.5t64 -81.5t83 -36q22 -9 83.5 -23
t158.5 -14q233 0 467 102q100 43 293 120.5t302.5 135.5t200.5 139t162 199q-1 59 -64 94t-150 48.5t-188.5 19t-211.5 10.5q-70 4 -201 4q-162 0 -308 -12t-259 -31t-193.5 -37t-156.5 -34q-125 0 -270 95.5t-177 203.5q-17 58 -35.5 123t-30 123.5t-11.5 117.5
q0 107 45 168q179 239 290 368.5t247.5 239.5t334.5 219q306 167 554.5 247.5t510.5 80.5q179 0 373 -37q106 -16 106 -119q0 -118 -131 -294q-125 -168 -188 -168q-21 0 -59 24.5t-68 28.5q-163 0 -333 -25t-339 -80t-303 -141q-552 -359 -578 -627q396 92 992 99
q554 0 843 -99q114 -40 160.5 -69t71 -66t96.5 -168z" />
    <glyph glyph-name="T" unicode="T" horiz-adv-x="2273" 
d="M2404 2937q-19 -243 -127 -279q-87 -30 -369 -35t-407.5 -13t-243.5 -58q-37 -267 -65.5 -740.5t-28.5 -914.5q0 -477 41 -754q-16 -111 -53 -161t-115 -56q-82 0 -130 32t-75 124q-23 465 -36 853.5t-13 719.5q0 512 33 827q-196 -12 -289 -26t-198 -37.5t-176 -34.5
q-89 0 -159.5 98.5t-70.5 171.5q0 85 22.5 119.5t116.5 97.5q90 28 256.5 62.5t360.5 69.5t407 73q588 107 951 107q165 0 344 -25q37 -33 37 -98q0 -22 -5.5 -59t-7.5 -64z" />
    <glyph glyph-name="U" unicode="U" horiz-adv-x="2826" 
d="M2605 307q8 -56 8 -82q0 -133 -69 -203.5t-160 -70.5q-76 0 -137.5 45.5t-75.5 118.5q0 16 6 149t6 215q0 90 -8 127q-115 -13 -376 -85t-324 -115q-113 -73 -294.5 -180.5t-253.5 -154t-153 -112.5q-31 -25 -86 -25q-84 0 -199.5 42t-207 114.5t-113.5 151.5
q0 397 78 1032q34 276 74.5 528.5t88.5 520t66 372.5q50 266 242 266q40 0 90 -12q90 -29 90 -147q0 -94 -66 -246q-61 -230 -103 -491.5t-61.5 -510.5t-19.5 -456q0 -389 53 -504q144 80 330 152t365.5 129t423 129.5t335.5 101.5q0 508 5 831q2 176 3 342t4 295.5
t13 231.5q18 138 98 214.5t168 76.5q140 0 140 -197q-9 -216 -21.5 -442t-18 -380t-5.5 -329q0 -38 2 -131t2 -148q0 -193 -4.5 -389t-4.5 -270q0 -277 70 -504z" />
    <glyph glyph-name="V" unicode="V" horiz-adv-x="2785" 
d="M2720 2900q0 -208 -104.5 -394.5t-174.5 -269.5q-58 -138 -127.5 -263.5t-107 -200.5t-146.5 -342q-77 -193 -122 -332t-70.5 -249t-59.5 -276t-67 -303q-21 -82 -100 -157t-187 -120.5t-209 -45.5q-204 0 -262 184q-45 106 -88 272.5t-73 265.5t-117 302
q-55 128 -104 227.5t-124.5 250.5t-115.5 245t-82 219q-42 128 -124.5 327t-117.5 300q-29 73 -29 151q6 176 176 303q46 33 95 33q78 0 143.5 -81t77.5 -202q20 -70 67 -257t86.5 -322.5t108.5 -333.5q35 -98 85.5 -253.5t94 -262.5t119 -244.5t209.5 -341.5q39 114 97 260
t175.5 422.5t163 383.5t84.5 212q94 246 147 359t132.5 257t154.5 302q52 167 230 167q93 0 172 -53.5t94 -138.5z" />
    <glyph glyph-name="W" unicode="W" horiz-adv-x="3707" 
d="M3588 2990q-23 -82 -92 -329.5t-130.5 -454.5t-146.5 -457q-94 -278 -129 -485t-46 -476.5t-17 -336.5q-8 -97 -84 -191t-166 -149q-70 -45 -135 -45q-83 0 -180 73q-19 72 -80 319t-129 464q-166 520 -220 667t-194 393q-169 -310 -256 -488t-145 -389.5t-58 -449.5
q0 -263 -30.5 -382.5t-78.5 -160t-194 -120.5q-116 -62 -192 -62q-150 0 -226 201q-39 291 -78.5 543.5t-83.5 479.5t-108 529q-55 257 -74 334.5t-72 297t-75 319.5q0 133 73.5 213t176.5 90q262 0 262 -217v-111q0 -420 75.5 -841t207.5 -814q105 496 340 1135
q61 163 134 310t99 317q26 157 139 244t246 87q108 0 179 -58t71 -163q0 -21 -2 -61t-2 -58q0 -225 43.5 -433.5t161.5 -618.5q59 -209 90.5 -282t113.5 -222q43 153 103 305t122 309.5t103 302.5q52 176 68 320.5t33.5 326t50.5 320.5q0 139 97.5 215t192.5 76
q89 -10 173.5 -84t84.5 -170q0 -43 -16 -82z" />
    <glyph glyph-name="X" unicode="X" horiz-adv-x="2753" 
d="M2544 2757q-74 -57 -218.5 -189t-244.5 -266q-136 -178 -304.5 -416t-248.5 -354q38 -85 148.5 -213t284.5 -299.5t292 -286t168 -172.5q16 -14 60 -53.5t83.5 -82.5t70.5 -95.5t31 -100.5q-5 -56 -51.5 -113t-123.5 -94.5t-164 -37.5q-45 1 -92 47.5t-87.5 106.5
t-70.5 104q-59 72 -158 178.5t-234.5 248t-248.5 259.5t-219 235q-193 -181 -388 -507t-247 -607q-25 -110 -164 -110q-99 0 -152 4q-84 3 -134 82.5t-50 195.5q0 108 41 201q117 275 297 559.5t440 652.5q-99 132 -287 380.5t-393 508.5q-102 239 -102 324q0 86 74 172
q87 98 176 98q81 0 151 -79t103 -183q211 -380 362.5 -591t210.5 -277q98 88 355 434.5t329 433.5q42 50 88 147.5t88.5 160t126.5 122.5q42 29 107 29q83 0 174.5 -49.5t153 -131.5t61.5 -172q0 -115 -94 -204z" />
    <glyph glyph-name="Y" unicode="Y" horiz-adv-x="2355" 
d="M2376 2843q-64 -147 -150.5 -259.5t-161.5 -228.5q-322 -493 -639 -1147q-136 -281 -179 -377t-81.5 -250.5t-58.5 -379.5q-9 -94 -98 -168t-189 -74q-17 0 -57 8q-131 42 -164 128t-33 224q15 161 60 286.5t136.5 307t143.5 304.5q-50 97 -143 234.5t-191.5 270.5
t-261 351.5t-268.5 367.5q-90 129 -90 299q0 172 131 254q30 21 70 21q47 0 90 -34t77.5 -84.5t55 -88.5t39.5 -76q52 -63 90 -139.5t91 -181.5t175 -289q206 -308 360 -463q100 258 369 697.5t512 785.5q38 49 98 49q92 0 185.5 -88.5t93.5 -190.5q0 -33 -12 -69z" />
    <glyph glyph-name="Z" unicode="Z" horiz-adv-x="2556" 
d="M2519 643q0 -75 -68.5 -138t-156.5 -63q-56 0 -119 37q-109 -20 -363.5 -62t-382.5 -75.5t-282 -104t-381 -212.5q-136 -86 -242 -86q-92 0 -152 59.5t-122 177.5q-49 90 -49 213q0 93 32 148q48 76 151.5 230.5t208 312t214.5 337.5q84 134 194.5 313.5t202.5 322.5
t194 291t208 290q-67 0 -159 4t-128 4q-157 0 -365 -62q-115 -35 -154.5 -52.5t-96 -67t-105.5 -88.5q-40 -45 -106 -45q-76 0 -158 61.5t-136.5 154t-54.5 177.5q0 95 74 147q225 95 778 238q429 106 955 106q63 0 135 -55.5t123 -136.5q98 -172 98 -295q0 -105 -78 -160
q-197 -132 -365.5 -313t-315.5 -393.5t-359 -550.5q-56 -88 -115.5 -180.5t-116 -189t-100 -184t-53.5 -139.5q468 208 917 308q68 16 148.5 36.5t136.5 28.5t141 8q90 0 152 -4q64 -3 137 -133.5t84 -214.5z" />
    <glyph glyph-name="bracketleft" unicode="[" horiz-adv-x="3617" 
d="M3166 2179q0 -115 -78 -180.5t-172 -65.5q-69 0 -106 37q-47 72 -241.5 263.5t-304.5 328.5t-110 256q0 52 29 98q90 90 197 90q101 0 168 -86q81 -108 261.5 -308.5t245.5 -274t111 -158.5zM3338 864q21 -35 21 -82q0 -59 -37 -95t-62 -48q-192 -80 -551.5 -224.5
t-537.5 -205.5q-89 0 -175.5 81.5t-86.5 168.5q0 76 73 127q570 372 1147 487q29 -8 89.5 -53t119.5 -156zM2204 1352q-428 -33 -951 -33q-529 0 -999 33q-160 13 -160 286q0 96 58 120t180 40q113 -10 246.5 -16.5t398 -15t521.5 -16.5t599 -21q128 0 199 -73t71 -165
q0 -139 -163 -139z" />
    <glyph glyph-name="backslash" unicode="\" horiz-adv-x="1622" 
d="M451 1880q50 -98 171.5 -315t181.5 -329t134 -282q23 -54 135 -306.5t166 -377.5t88 -209q75 -127 135 -127q40 0 111 46q38 23 79.5 48.5t65 56.5t23.5 83q0 32 -21 98q-37 78 -124 258.5t-255 530.5t-227 472t-360 754q-23 49 -132 263.5t-167 349.5t-78 239
q-44 132 -180 132q-50 0 -144 -25q-70 -20 -98.5 -40t-28.5 -67q0 -17 8 -65q37 -159 115.5 -351.5t174 -387t227.5 -449.5z" />
    <glyph glyph-name="bracketright" unicode="]" horiz-adv-x="3482" 
d="M266 913q0 117 78 181.5t172 64.5q70 0 107 -37q48 -74 243.5 -266.5t303.5 -327t108 -254.5q0 -52 -29 -98q-90 -90 -196 -90q-100 0 -168 86q-89 119 -236.5 281.5t-243 271t-139.5 188.5zM295 2306q-21 38 -21 82q0 58 37 94.5t62 48.5q85 35 286 117t415.5 167.5
t387.5 145.5q89 0 175.5 -81.5t86.5 -167.5q0 -77 -73 -127q-569 -373 -1147 -488q-29 8 -90 54t-119 155zM1188 1774q431 32 950 32q516 0 1000 -32q159 -14 159 -287q0 -96 -57.5 -120t-179.5 -40q-103 11 -297 19.5t-403.5 14.5t-487.5 15t-578 21q-127 0 -198.5 74
t-71.5 163q0 140 164 140z" />
    <glyph glyph-name="a" unicode="a" horiz-adv-x="2617" 
d="M2486 180q-37 -114 -98 -173.5t-127 -59.5q-99 0 -176 114q-57 72 -57 197v111q0 159 -50 319q-241 -12 -442.5 -52.5t-384 -106.5t-343 -145.5t-370.5 -199.5q-65 -115 -65 -151q0 -6 2 -20t2 -25q0 -41 -8 -74q-75 -111 -230 -111q-106 0 -182 60t-76 170q0 63 29 131
q191 512 335 861t328 667q116 199 233 398.5t213 349.5t192 283.5t264 352.5q48 59 120.5 95t128.5 36q52 0 107 -41.5t74 -130.5q68 -307 123.5 -588t143 -736.5t161 -816.5t153.5 -714zM1896 1212q-13 58 -75 372t-113.5 508.5t-114.5 307.5q-66 -24 -159 -150
t-188.5 -284t-180.5 -299q-102 -160 -159 -279.5t-110.5 -273t-78.5 -217.5q75 41 259 117t429 125q115 23 185 33.5t165 21.5t141 18z" />
    <glyph glyph-name="b" unicode="b" horiz-adv-x="2839" 
d="M2621 1343q62 -104 62 -237q0 -191 -126 -389.5t-337 -323.5q-240 -143 -408 -228.5t-371.5 -147.5t-477.5 -95q-57 -4 -218.5 -20.5t-240.5 -16.5q-112 0 -160 17q-28 16 -80.5 52.5t-87.5 74.5q-29 41 -29 82q0 48 51.5 149t55.5 154q3 56 7 169t5.5 174.5t7.5 184.5
q-90 27 -90 205q0 174 115 323q0 120 2.5 245t6 325t3.5 368q-76 -41 -131 -41q-109 0 -131 164q0 100 29 164.5t75 102.5t108 65.5t112 48.5q194 89 327 128.5t435 80.5q231 33 458 33q430 0 680 -111q160 -69 250 -216t90 -320q0 -185 -102 -336q-73 -105 -148.5 -185.5
t-161.5 -157t-169 -149.5q96 -13 187 -26.5t150.5 -39t121 -88t130.5 -182.5zM2265 2568q-41 58 -222 98.5t-421 40.5q-571 0 -942 -233q-25 -146 -25 -561q0 -293 25 -357q127 43 219 80t262.5 109t337.5 139q138 55 326 172t322 243.5t134 215.5q0 32 -16 53zM2261 983
q90 84 90 152q0 131 -348 131q-78 0 -123 -4q-389 -23 -621.5 -59.5t-590.5 -149.5q16 -55 16 -156q0 -61 -8 -192t-8 -185q0 -87 16 -131q238 0 476.5 63t539.5 191q343 147 561 340z" />
    <glyph glyph-name="c" unicode="c" horiz-adv-x="2519" 
d="M2392 2769q-3 -89 -93.5 -194t-176.5 -105q-87 0 -127 123q-91 69 -185 69q-34 0 -67 -7t-77 -19t-64 -15q-167 -65 -417.5 -304.5t-457.5 -541.5t-264 -550q-66 -283 -66 -377q0 -83 78 -201q137 -205 410 -205q180 0 388.5 83.5t396.5 210.5t312 251q84 103 177 103
q86 0 139 -95q82 -140 82 -192q0 -77 -99 -160q-108 -93 -218.5 -189.5t-227.5 -181.5t-263 -160t-331 -132q-217 -66 -389 -66q-248 0 -431.5 122.5t-273.5 373.5q-77 208 -77 479q0 700 479 1405q245 364 599.5 614.5t637.5 265.5q18 0 47 2t43 2q516 0 516 -409z" />
    <glyph glyph-name="d" unicode="d" horiz-adv-x="2650" 
d="M2556 1769q-88 -210 -160 -361.5t-167.5 -300t-233.5 -308.5q-156 -180 -321 -296.5t-409 -251t-364 -214.5q-58 -41 -143 -41q-101 0 -211.5 53.5t-183 141.5t-72.5 182l24 2035q-113 36 -184 168q-53 100 -53 168q0 75 52 104.5t198 80.5q492 176 999 176q131 0 197 -4
q243 -15 387 -36.5t282.5 -91.5t227.5 -208q213 -325 213 -627q0 -175 -78 -369zM2060 2597q-163 29 -356 29q-540 0 -983 -193q-37 -219 -37 -561q0 -154 10.5 -455t10.5 -475q0 -158 -13 -332q91 6 219.5 45.5t276 120t287.5 199.5q94 82 166 164t140 177t136 191
q144 197 234 420t90 391q0 243 -181 279z" />
    <glyph glyph-name="e" unicode="e" horiz-adv-x="2490" 
d="M2335 668q0 -71 -153 -147t-380 -165q-178 -68 -330 -131.5t-227 -98.5t-240.5 -115.5t-259.5 -125.5q-47 -20 -90 -20q-146 0 -281.5 125t-135.5 301q0 114 19.5 354t28.5 357t9 280q0 758 53 1147q-61 48 -61 160q0 92 52 186t153 154q472 159 677 204t555 62
q90 20 156 20q317 0 401 -319q0 -75 -85 -105t-206 -33t-229 -5q-211 -9 -427.5 -69.5t-530.5 -205.5q-66 -140 -66 -442q0 -164 8 -254q104 31 345.5 113.5t406 122.5t367.5 59q143 -13 204 -33.5t136 -122.5q16 -32 16 -49q0 -97 -147 -164q-122 -57 -291 -116
t-388.5 -136.5t-380.5 -158t-292 -187.5q-21 -49 -21 -127q0 -58 14.5 -166t18.5 -162q11 -98 160 -98q185 0 602 164q112 42 194.5 66.5t156 40.5t165.5 36q67 13 103 13q89 0 128 -45.5t93 -163.5z" />
    <glyph glyph-name="f" unicode="f" horiz-adv-x="2417" 
d="M2138 2884q0 -84 -44 -119.5t-152 -44.5q-267 -24 -441.5 -48t-373.5 -78.5t-382 -152.5q-11 -69 -43 -205.5t-34 -232.5q0 -77 4.5 -199.5t7.5 -189.5q185 71 357.5 130.5t335 104.5t307 74.5t307.5 50.5q209 0 286 -110q29 -46 29 -78q0 -40 -37.5 -65.5t-117.5 -57
t-124 -57.5q-118 -67 -418.5 -177.5t-520 -217t-429.5 -293.5q-28 -207 -28 -488q0 -180 12 -414q-28 -181 -168 -241q-46 -21 -106 -21q-58 0 -97 28.5t-39 78.5q-20 190 -20 545q0 343 24 651q17 200 29.5 425.5t25.5 488.5t27 450q-139 96 -139 188q0 48 37 148
q26 69 109 117.5t133 66.5q402 129 654.5 183t504.5 54q147 0 225 -8q52 -15 95 -28t83 -38t73.5 -78.5t47.5 -141.5z" />
    <glyph glyph-name="g" unicode="g" horiz-adv-x="3092" 
d="M2990 1782q33 -64 33 -156q0 -114 -47 -209.5t-125 -109.5q-61 -11 -118.5 -16.5t-90.5 -12t-98 -29.5q-92 -306 -324 -626q-233 -322 -525.5 -495t-523.5 -214q-135 -20 -241 -20q-259 0 -451.5 106t-277.5 319q-70 173 -70 451q0 424 135 758q159 398 479.5 823
t663.5 660q314 213 602 213q72 0 139 -13q152 -25 219 -56t142 -140q82 -129 82 -181q0 -28 -16 -49.5t-50.5 -50t-72.5 -63.5q-149 -144 -222 -144q-25 0 -40.5 15t-42 55.5t-50 67.5t-55.5 42q-40 17 -86 17q-93 0 -221.5 -52.5t-292 -177.5t-342.5 -331
q-96 -108 -236 -334t-244 -458t-110 -372q0 -297 96.5 -420.5t304.5 -123.5q583 11 1029 434q225 218 262 348q-177 -18 -238 -39t-114.5 -41t-221.5 -35q-82 18 -123 96.5t-41 178.5q0 114 45 180q58 45 132 54t228.5 22.5t319.5 58.5q399 111 652 111q124 0 147 -41z" />
    <glyph glyph-name="h" unicode="h" horiz-adv-x="2851" 
d="M2621 205q0 -316 -204 -316q-34 -8 -50 -8q-63 0 -107 45t-44 107q-25 161 -25 426q0 68 2 192t2 176q0 216 -24 299q-388 -71 -626.5 -156.5t-383.5 -176.5t-452 -310q-4 -37 -4 -106q0 -33 2 -97t2 -100q0 -102 -21 -192q-8 -91 -62 -124t-147 -40q-13 0 -42 -2t-44 -2
q-82 0 -131 74q-33 100 -33 253q0 84 25 338.5t25 427.5v160q0 153 4.5 269t17.5 332t18 328.5t5 221.5q0 285 -41 537q-9 54 -9 69q0 93 48 132t145 69q94 25 127 25q156 0 156 -181q8 -98 8 -163q0 -127 -10 -268.5t-33.5 -416.5t-33 -419.5t-9.5 -284.5q0 -127 4 -184
q61 60 350.5 183.5t619 237.5t521.5 152q0 101 2 275t2 249q0 474 -74 787q19 101 81.5 153t148.5 52q141 0 221 -127q49 -212 49 -426q0 -116 -16.5 -321t-16.5 -326q0 -18 2 -58t2 -61q12 -238 14 -400t5.5 -459t9.5 -466.5t24 -378.5z" />
    <glyph glyph-name="i" unicode="i" horiz-adv-x="954" 
d="M725 2007q-5 -122 -23.5 -359.5t-24 -325t-5.5 -228.5q0 -20 2 -64t2 -67q8 -383 29 -840q-9 -103 -46.5 -139.5t-142.5 -36.5q-42 4 -85.5 9.5t-78 22.5t-58 55t-32.5 109q4 310 11 902.5t10 1199.5q0 99 12 261t12 230q0 130 -28 250q0 199 249 233q52 9 74 9
q49 0 72 -24.5t35 -90.5q41 -188 41 -442q0 -124 -11 -347.5t-14 -316.5z" />
    <glyph glyph-name="j" unicode="j" horiz-adv-x="2875" 
d="M2707 2908q0 -290 -176 -303q15 3 36.5 8t21.5 8h-4q-33 0 -160 -24q37 -473 37 -733q0 -259 -54 -1090q-19 -333 -172 -602q-117 -205 -471 -205q-106 0 -381 25q-307 27 -526 94.5t-407 204.5q-51 36 -93 66t-78 67.5t-57.5 89t-21.5 117.5q0 62 16 127q26 105 78 163
t123 58q92 0 196 -111q92 -100 205.5 -164.5t252 -109t358.5 -94.5q101 -25 192 -25q261 0 418 172q74 109 74 262q0 53 -6.5 174t-6.5 236q8 139 8 336q0 103 -4.5 195t-11.5 187t-16 224q-4 96 -29 258q-105 -17 -182 -19t-125.5 -18.5t-237.5 -105.5q-169 0 -274 172
q-49 76 -49 151q0 124 114 164q167 66 220.5 82t148 35.5t184.5 42.5q216 56 602 143q132 0 193.5 -75t64.5 -183z" />
    <glyph glyph-name="k" unicode="k" horiz-adv-x="2785" 
d="M2601 573q45 -67 45 -122q0 -32 -12 -54.5t-31.5 -45t-42.5 -48.5q-60 -82 -119 -82q-37 0 -65.5 34t-57.5 89.5t-41 65.5q-174 181 -394 317t-456.5 224t-484.5 139q-71 0 -166.5 -60t-144.5 -100q-17 -97 -17 -201q0 -60 8.5 -173t8.5 -196q0 -161 -29 -299
q-18 -84 -61 -113.5t-135 -29.5q-185 34 -185 238q25 376 25 958q0 352 8 590v778q0 169 12 324q6 88 59 158t117 83q104 25 127 25q46 0 64 -37.5t18 -142.5q25 -163 25 -324q0 -141 -18.5 -356.5t-18.5 -306.5q0 -129 25 -238q34 15 115.5 93t224 222.5t184.5 184.5
q221 205 399.5 398.5t291.5 331.5t173 212q74 74 160 74q75 0 188 -78q111 -71 111 -213q0 -100 -78 -160q-150 -154 -280.5 -283t-274.5 -272t-264.5 -272t-278.5 -312q85 -52 257 -147t308.5 -186t262.5 -207q185 -167 264.5 -252.5t173.5 -227.5z" />
    <glyph glyph-name="l" unicode="l" horiz-adv-x="2322" 
d="M2105 700q54 -114 54 -131q0 -36 -41 -65q-65 -48 -172 -86t-306 -88t-276 -72q-140 -38 -248.5 -78.5t-208.5 -84.5t-140.5 -59.5t-82.5 -15.5q-25 0 -66 13q-129 38 -212 80.5t-138 131t-55 238.5q0 89 16 176q27 161 38.5 343.5t20 461.5t11.5 338q8 205 8 525
q0 348 -12 471q0 335 254 335q201 -46 201 -397q0 -79 -13 -172q-45 -401 -62 -600t-24 -373.5t-8.5 -380.5t-3.5 -567q146 0 318.5 41.5t440.5 121.5t396 103q221 0 311 -209z" />
    <glyph glyph-name="m" unicode="m" horiz-adv-x="3297" 
d="M3240 319q25 -83 25 -135q0 -116 -127 -168q-61 -24 -115 -24q-125 0 -164 155q-87 348 -145 676.5t-93.5 636t-60.5 645.5q-61 -180 -167.5 -484.5t-139.5 -383.5q-106 -264 -159 -422.5t-98.5 -313.5t-68.5 -208t-67 -96q-120 -91 -238 -91q-131 0 -217 127
q-27 177 -67 358.5t-112 470.5t-118.5 491t-91.5 425q-173 -378 -373 -1106q-30 -111 -60 -282t-48 -256t-72 -260q-98 -127 -213 -127q-52 0 -107 16q-77 0 -120 61t-43 156q0 49 12 99q89 400 197.5 788.5t312 1038t219.5 700.5q10 120 77 207.5t189 87.5q70 0 164 -37
q97 -41 122 -83t25 -142v-156q5 -256 41 -529q48 -339 130.5 -702.5t144.5 -558.5q60 248 123.5 446.5t146.5 412.5t181.5 466.5t183.5 501.5q39 113 58.5 226t33.5 155.5t76 105.5q54 33 159 33q77 0 154 -21t131 -57.5t68 -81.5q8 -33 8 -98q0 -18 -4 -112t-4 -191
q5 -184 16 -344t28 -304t36.5 -298t37.5 -312q31 -281 59.5 -454t79 -400t54.5 -248z" />
    <glyph glyph-name="n" unicode="n" horiz-adv-x="2744" 
d="M2540 2961q16 -60 16 -131q0 -55 -20.5 -197.5t-20.5 -273.5q0 -48 8 -188q33 -395 33 -672q0 -85 -4 -242t-4 -249q0 -250 8 -418q2 -40 7 -114t5 -107q0 -280 -155 -365q-134 -106 -267 -106q-76 0 -110 41q-81 68 -181 230.5t-239 388t-273 384.5
q-108 132 -196.5 228.5t-205 220.5t-173 189t-113.5 144q-4 -164 -28.5 -312t-24.5 -322v-123q6 -210 37 -639q0 -271 -193 -271q-92 0 -166.5 63t-74.5 159q1 261 9.5 426t24.5 348t23.5 348.5t7.5 453.5q-3 278 -11.5 378t-49.5 298q-12 43 -12 82q0 104 70.5 188.5
t178.5 118.5q37 0 116.5 14.5t121.5 14.5q70 0 98 -29q52 -49 97.5 -176.5t110.5 -318t120 -283.5q114 -193 214.5 -327t267 -335.5t289 -359.5t245.5 -354q45 219 45 516q0 174 -21.5 480t-23.5 470q-2 132 -27.5 354.5t-25.5 362.5q0 242 188 242q105 0 190.5 -64.5
t88.5 -165.5z" />
    <glyph glyph-name="o" unicode="o" horiz-adv-x="2888" 
d="M2781 1389q-168 -404 -364.5 -651t-419.5 -386.5t-531 -253.5q-317 -118 -581 -118q-425 0 -660 303q-245 316 -245 770q0 434 225 901q139 285 345.5 529.5t459 417t518.5 237.5q198 45 368 45q273 0 487 -119t320 -381q189 -444 189 -766q0 -266 -111 -528zM2511 2314
q-99 357 -656 357q-126 0 -245 -13q-160 -16 -349 -96t-373.5 -224.5t-322 -355t-188.5 -471.5q-17 -86 -17 -180q0 -181 64.5 -340.5t168.5 -271.5t218 -154q82 -20 205 -20q127 0 274.5 28t304 97.5t303.5 189.5t261 295q102 157 185 324.5t131 336t48 330.5q0 82 -12 168
z" />
    <glyph glyph-name="p" unicode="p" horiz-adv-x="2593" 
d="M2556 2781q106 -174 106 -409q0 -345 -221 -594q-120 -137 -227 -242.5t-229.5 -197.5t-288.5 -187q-318 -180 -536.5 -272t-438.5 -125q-16 -279 -16 -361q-10 -77 -18 -141t-21.5 -115.5t-37.5 -87t-67 -57.5q-24 -12 -61 -12q-96 0 -177 78.5t-81 244.5q0 59 12 127
q45 249 45 340q0 20 -4 86t-4 135v119q3 121 32 511.5t29 557.5q0 34 2 118t2 124q0 73 -4 98q-43 10 -112.5 68t-108.5 129q-33 59 -33 127q0 180 242 237q146 32 293 50.5t276.5 24t408.5 12t296 7.5q222 0 412.5 -51t325.5 -141t204 -201zM2179 2114q102 100 102 266
q0 105 -59.5 182.5t-185.5 99.5q-195 13 -406 13q-515 0 -868 -123q-74 -212 -74 -864v-197q67 -61 209 -61q221 0 475 122q227 110 356 187t224 157.5t227 217.5z" />
    <glyph glyph-name="q" unicode="q" horiz-adv-x="3195" 
d="M2925 1409q-189 -463 -426 -741q51 -126 151 -278t160 -244.5t61 -153.5q0 -84 -110 -156q-82 -53 -148 -53q-59 0 -123 41q-38 28 -92 111t-116.5 194.5t-139.5 251.5q-97 -67 -170 -117t-145 -91.5t-168 -78.5q-294 -106 -541 -106q-461 0 -712 327q-238 309 -238 758
q0 434 229 914q139 288 337.5 538.5t440.5 420.5t508 224q174 33 316 33q322 0 557.5 -142.5t339.5 -418.5q151 -395 151 -672q0 -265 -122 -561zM2666 2290q-47 215 -233.5 312t-441.5 97q-108 0 -238 -20q-154 -23 -347 -115t-376.5 -246.5t-321 -369t-188.5 -478.5
q-12 -54 -12 -114q0 -155 64 -324t169 -298.5t213 -168.5q105 -24 234 -24q186 0 371 59t329 178q-151 279 -254 373q-78 73 -78 147q0 75 123 185q126 110 217 110q94 0 127 -131q71 -181 230 -442q12 18 79 88t81 92q282 443 282 848q0 134 -29 242z" />
    <glyph glyph-name="r" unicode="r" horiz-adv-x="2937" 
d="M2765 2343q-31 -255 -93 -425t-150 -280t-236 -222t-250 -187q124 -75 225 -154t189.5 -157.5t200.5 -182t179 -157.5q136 -174 136 -336q0 -168 -136 -168q-46 0 -118 32q-164 175 -357 305.5t-378 216.5t-391 158.5t-292 102.5q-73 -12 -263 -46.5t-273 -43.5
q-17 -112 -17 -205q0 -84 22.5 -181t22.5 -171q0 -58 -4 -95q-64 -167 -237 -167q-80 0 -136.5 40t-56.5 103q-33 111 -33 332q7 184 13 349.5t8 317.5q5 313 11 533t11.5 450.5t6.5 380.5q-123 24 -197 242q-29 83 -29 131q0 45 23.5 70.5t89 59.5t92.5 50q40 26 128 49
t138 33q376 70 717 70q365 0 979 -99q126 -19 232 -117.5t166.5 -245.5t60.5 -300q0 -57 -4 -86zM2376 2269q8 34 8 45q0 70 -69 139t-161.5 115t-158.5 53q-57 6 -201.5 24.5t-253 28t-197.5 9.5q-297 0 -561 -98q-49 -283 -49 -1029v-196q153 13 457 102t452 172
q338 186 507 337t227 298z" />
    <glyph glyph-name="s" unicode="s" horiz-adv-x="2875" 
d="M2724 1389q29 -96 29 -201q0 -129 -44.5 -257.5t-121 -241t-166.5 -193.5q-276 -250 -621.5 -397.5t-656.5 -147.5q-361 0 -582 196q-155 144 -155 299q0 108 73 218q79 122 160 122q52 0 89 -35t120 -128q145 -164 307 -164q134 0 352 78q181 63 330 139.5t290 196.5
t253 282q-3 106 -120.5 140.5t-322.5 47.5q-45 5 -139 5q-162 0 -305.5 -15t-376.5 -47t-353.5 -44.5t-250.5 -12.5q-85 3 -160 94.5t-110 212.5q-58 209 -58 332q0 121 49 188q172 236 271 356t221.5 223t306.5 208q278 159 504 235t467 76q179 0 336 -33q98 -17 98 -168
q0 -88 -33.5 -190.5t-81.5 -169.5q-84 -119 -114 -119q-13 0 -40 39t-67.5 68t-118.5 36q-24 4 -86 4q-174 0 -371 -55t-358 -182q-190 -148 -279.5 -227.5t-152.5 -179.5t-67 -224q11 -41 90 -41q71 0 294.5 55.5t307.5 63.5q225 20 442 20q368 0 520 -53
q312 -113 402 -409z" />
    <glyph glyph-name="t" unicode="t" horiz-adv-x="2273" 
d="M2413 2949q-21 -244 -127 -278q-85 -30 -313.5 -40.5t-324.5 -19t-218 -59.5q-82 -606 -82 -1413q0 -503 45 -783q-39 -267 -181 -278q-90 0 -147 47t-57 194q-8 173 -19.5 398t-18.5 404t-11.5 369t-4.5 284q0 343 33 708q-190 -12 -306.5 -41.5t-265 -81.5t-235.5 -65
q-89 0 -159 99t-70 171q0 85 22.5 119.5t116.5 97.5q684 208 1004 266q741 136 1089 136q112 0 205 -13q37 -31 37 -98q0 -15 -5 -55.5t-7 -67.5z" />
    <glyph glyph-name="u" unicode="u" horiz-adv-x="2826" 
d="M2605 446q0 -352 -254 -352q-84 0 -153 45t-84 119q0 22 8 86t8 111q0 57 -8 90q-96 -10 -296 -102.5t-282 -147.5q-130 -83 -231 -130.5t-167.5 -69t-173.5 -49.5t-177 -54q-62 -17 -86 -17q-107 0 -227 69.5t-202.5 177t-91.5 212.5q-8 124 -8 160q0 73 7 141t29 231.5
t42 336.5q27 207 60 437.5t49.5 357t29.5 290.5t13 340q0 119 55 256t158 137q47 0 102 -37q69 -41 108 -123.5t39 -273.5q-10 -77 -74 -337.5t-103.5 -502.5t-39.5 -540q0 -306 50 -594q30 -62 139 -62q102 0 259 48t435 154t399 149t226 59q0 508 4 831v357q0 430 -45 659
q-8 50 -8 70q0 176 167 176q114 0 213 -84.5t99 -214.5q-9 -216 -21.5 -442t-18 -380t-5.5 -329q0 -38 2 -131t2 -148q0 -175 -6 -361t-6 -233q0 -174 65 -385z" />
    <glyph glyph-name="v" unicode="v" horiz-adv-x="2785" 
d="M2834 3076q17 -31 17 -78q0 -120 -92 -249.5t-154 -192.5q-46 -107 -86.5 -184t-132 -248.5t-165 -326t-161.5 -367.5q-163 -408 -247 -672.5t-179 -655.5q-24 -98 -106.5 -157.5t-179.5 -59.5q-98 0 -182 63t-122 187q-28 68 -128.5 324.5t-210.5 511.5
q-44 99 -145.5 325.5t-148.5 344t-104 284.5q-50 152 -102.5 288t-77.5 208q-29 73 -29 143q0 169 181 242q60 24 110 24q132 0 156 -217q103 -365 246 -770q43 -118 91 -283.5t80 -256.5t105 -233.5t203 -340.5q39 114 97 260t175.5 422.5t163 383.5t84.5 212
q96 249 167 388.5t189.5 345t192.5 360.5q53 164 205 164q86 0 170 -54.5t120 -134.5z" />
    <glyph glyph-name="w" unicode="w" horiz-adv-x="3707" 
d="M3588 2990q-23 -82 -92 -329.5t-130.5 -454.5t-146.5 -457q-102 -302 -162.5 -529.5t-91.5 -413.5t-49 -396q-10 -118 -37.5 -186t-101.5 -113q-70 -45 -135 -45q-83 0 -180 73q-19 72 -80 319t-129 464q-51 158 -109 358t-88 293.5t-81 212t-124 246.5
q-109 -200 -173.5 -382.5t-146 -472t-138.5 -452.5q-71 -200 -108.5 -401.5t-62 -263.5t-116.5 -113q-117 -62 -193 -62q-151 0 -225 201q-33 247 -64.5 437.5t-66.5 365.5t-75 362t-93 432q-42 196 -64 319t-44.5 282t-47.5 301q-8 48 -8 73q0 109 52 189.5t141 89.5
q251 0 262 -217q12 -278 46.5 -594t94 -622.5t142.5 -549.5q105 496 340 1135q192 516 368 868q57 115 197 115q70 0 125 -34t67 -89q33 -138 87.5 -388t108 -467.5t116.5 -438.5q59 -209 90.5 -282t113.5 -222q57 199 133 498t125 473q41 141 71.5 260t72 298t50 218
t52.5 227q48 123 336 123q84 -7 140.5 -46t56.5 -114q0 -40 -25 -98z" />
    <glyph glyph-name="x" unicode="x" horiz-adv-x="2753" 
d="M2535 2859q-71 -83 -215 -256.5t-239 -300.5q-136 -178 -304.5 -416t-248.5 -354q41 -90 124.5 -207.5t171 -222.5t216.5 -251.5t164 -186.5q30 -26 84.5 -73.5t99.5 -109t45 -121.5q-7 -92 -82.5 -160.5t-204.5 -68.5q-45 1 -91 46.5t-96 120.5t-63 91
q-117 142 -679 774q-194 -183 -422 -564t-279 -660q-23 -111 -164 -111q-98 0 -151 4q-86 3 -135.5 83.5t-49.5 195.5q0 105 41 200q198 465 803 1323q-99 132 -287 380.5t-393 508.5q-86 198 -86 254q0 57 82 152q96 106 172 106q91 0 139 -160q210 -379 397.5 -598
t270.5 -290q60 54 136 155t198 277.5t204.5 294.5t149.5 198q256 312 352 312q105 0 227 -85.5t122 -213.5q0 -21 -9 -66z" />
    <glyph glyph-name="y" unicode="y" horiz-adv-x="2355" 
d="M2494 2978q-50 -114 -98 -179t-147.5 -188.5t-184.5 -255.5q-288 -441 -639 -1163q-55 -113 -126 -260t-118.5 -272t-79.5 -265.5t-48 -312.5q-9 -98 -62.5 -161.5t-134.5 -63.5q-21 0 -61 8q-151 46 -211 109.5t-60 164.5q15 166 72 336.5t134 344.5t175 397
q-71 136 -223 382t-329.5 515.5t-315.5 465.5q-66 92 -66 173q0 116 148 208q46 29 86 29q36 0 57 -28t41 -85t21 -59q75 -90 195.5 -295.5t250.5 -400.5q206 -308 360 -463q100 258 369 697.5t512 785.5q55 73 184 73q117 0 214.5 -54t97.5 -134q0 -26 -13 -49z" />
    <glyph glyph-name="z" unicode="z" horiz-adv-x="2556" 
d="M2413 582q0 -81 -51 -141t-126 -60q-49 0 -110 37q-131 -24 -348.5 -61t-318 -67t-231.5 -98t-364 -212q-136 -86 -241 -86q-91 0 -152.5 60.5t-122.5 176.5q-57 98 -57 168q0 46 28 98q23 38 166.5 295t230 410t185.5 315q353 567 860 1254q-239 0 -374 -15t-338 -76
q-176 -53 -254.5 -94t-221.5 -155q-48 -50 -98 -50q-91 0 -166.5 129t-75.5 273q0 102 50 176q234 98 807 246q427 106 954 106q63 0 135 -55.5t123 -136.5q12 -22 39 -64t39 -68.5t12 -52.5q0 -41 -33 -73q-260 -274 -563.5 -675t-562.5 -812q-95 -151 -203 -375.5
t-129 -329.5q227 101 367.5 151t394.5 107q60 13 134.5 34t113.5 28.5t108 7.5q26 0 164 -8q66 -3 143 -114.5t87 -192.5z" />
    <glyph glyph-name="nonbreakingspace" unicode="&#xa0;" horiz-adv-x="2048" 
 />
    <glyph glyph-name="copyright" unicode="&#xa9;" horiz-adv-x="3052" 
d="M2859 1372q-127 -303 -256 -505.5t-270 -334.5t-299 -219t-387 -174q-247 -94 -496 -94q-232 0 -434 86.5t-332 257.5q-258 343 -258 811q0 409 192 799q99 202 242.5 381.5t314.5 322t365 243t389 146.5q135 33 271 33q305 0 565 -145t377 -424q143 -348 143 -614
q0 -269 -127 -570zM2576 2277q-57 209 -266 313.5t-459 104.5q-102 0 -204 -20q-156 -31 -334.5 -115.5t-346 -223t-296.5 -340t-178 -452.5q-13 -71 -13 -151q0 -188 75.5 -368t191 -308t225.5 -168q102 -25 217 -25q287 0 591.5 133t506.5 449q141 217 224 470.5t83 491.5
q0 119 -17 209zM2142 2204q0 -53 -34.5 -105t-84.5 -88q-46 -33 -102 -33q-89 0 -127 86q-18 9 -29 9q-14 0 -39.5 -9.5t-37.5 -11.5q-117 -49 -295.5 -260t-216.5 -375q-29 -109 -33 -160q0 -21 24 -65q54 -78 156 -78q108 0 244 80t227 178q68 74 143 74t132.5 -67.5
t64.5 -141.5q0 -91 -78 -156q-117 -100 -189 -157t-157 -105.5t-203 -85.5q-120 -33 -217 -33q-321 0 -430 299q-45 127 -45 267q0 368 254 749q86 127 203.5 233t244.5 171t236 71q389 0 389 -286z" />
    <glyph glyph-name="registered" unicode="&#xae;" horiz-adv-x="3052" 
d="M2859 1372q-127 -303 -256 -505.5t-270 -334.5t-299 -219t-387 -174q-247 -94 -496 -94q-232 0 -434 86.5t-332 257.5q-258 343 -258 811q0 409 192 799q99 202 242.5 381.5t314.5 322t365 243t389 146.5q135 33 271 33q305 0 565 -145t377 -424q143 -348 143 -614
q0 -269 -127 -570zM2036 1987q0 41 -172 41q-172 16 -258 16q-154 0 -287 -41q-12 -111 -12 -254q0 -40 2 -119t2 -114q196 54 336 139q350 223 389 332zM2576 2277q-41 146 -173.5 234t-306.5 124t-355 36q-62 0 -172 -9q-206 -19 -431.5 -154.5t-403 -383.5t-242.5 -580
q-17 -100 -17 -155q0 -188 76 -368.5t191 -306.5t229 -165q84 -29 217 -29q204 0 437 75t427 241q-193 131 -294.5 178.5t-274.5 75.5q-119 0 -185 -5q-7 -52 -8 -146t-4 -124q-48 -131 -164 -131q-54 0 -95 34.5t-44 88.5q-12 43 -12 106q0 76 17.5 217.5t19.5 192.5
q2 132 10 326.5t10 271.5q-55 3 -89 41t-34 86q0 145 73.5 217t217.5 98q208 41 414 41q211 0 442 -37q98 -22 178 -142.5t80 -278.5q-29 -215 -213 -406q-31 -31 -221 -188q46 -32 101 -74.5t113 -92.5t114 -95q15 -21 37 -50q8 11 18.5 26.5t26.5 39.5q141 217 224 470.5
t83 491.5q0 119 -17 209z" />
    <glyph glyph-name="AE" unicode="&#xc6;" horiz-adv-x="3686" 
d="M3580 930q-64 -171 -291 -246q-199 -64 -370 -141.5t-312.5 -155t-396.5 -224t-498 -278.5q-66 -32 -131 -32q-116 0 -197 82t-81 237q0 39 18 151t18 197q0 66 -4 107q-307 -17 -570.5 -83t-502 -167.5t-532.5 -253.5q-61 -81 -74.5 -110.5t-17.5 -67.5t-27 -92
q-96 -115 -246 -115q-95 0 -158 50.5t-63 137.5q0 77 53 176q573 1053 934 1528q166 219 303 392.5t237.5 288t170.5 188t354 372.5q37 41 101.5 52.5t147.5 23t132 43.5q210 71 364.5 113.5t262.5 61.5t307 45t278 38q136 33 209 33q197 0 197 -176q0 -55 -25 -139
q-29 -99 -78 -99q-7 0 -37 4t-53 4q-32 0 -82 -12q-114 -31 -339.5 -80t-363.5 -92t-329 -131q-65 -140 -65 -401q0 -136 8 -226q134 41 390 137.5t390 145t319.5 99.5t342.5 65q94 -10 94 -94q0 -16 -5 -52t-7 -55q-22 -189 -144 -246q-118 -55 -360 -149t-411.5 -165
t-336.5 -160.5t-297 -196.5q-57 -132 -57 -492q0 -98 4 -147q276 76 725 249q44 18 235.5 100t343 138.5t330.5 106.5q49 16 103 16q123 0 123 -135q0 -79 -33 -168zM1368 1151q-1 20 -9.5 348.5t-25.5 526t-59 313.5q-71 -25 -186 -151t-243.5 -291t-226.5 -291
q-127 -156 -205.5 -277t-172.5 -297t-105 -196q82 41 277.5 116t451.5 125q167 33 262 44.5t242 29.5z" />
    <glyph glyph-name="ae" unicode="&#xe6;" horiz-adv-x="3686" 
d="M3580 930q-64 -171 -291 -246q-199 -64 -370 -141.5t-312.5 -155t-396.5 -224t-498 -278.5q-66 -32 -131 -32q-116 0 -197 82t-81 237q0 39 18 151t18 197q0 66 -4 107q-307 -17 -570.5 -83t-502 -167.5t-532.5 -253.5q-61 -81 -74.5 -110.5t-17.5 -67.5t-27 -92
q-96 -115 -246 -115q-95 0 -158 50.5t-63 137.5q0 77 53 176q573 1053 934 1528q166 219 303 392.5t237.5 288t170.5 188t354 372.5q37 41 101.5 52.5t147.5 23t132 43.5q210 71 364.5 113.5t262.5 61.5t307 45t278 38q136 33 209 33q197 0 197 -176q0 -55 -25 -139
q-29 -99 -78 -99q-7 0 -37 4t-53 4q-32 0 -82 -12q-114 -31 -339.5 -80t-363.5 -92t-329 -131q-65 -140 -65 -401q0 -136 8 -226q134 41 390 137.5t390 145t319.5 99.5t342.5 65q94 -10 94 -94q0 -16 -5 -52t-7 -55q-22 -189 -144 -246q-118 -55 -360 -149t-411.5 -165
t-336.5 -160.5t-297 -196.5q-57 -132 -57 -492q0 -98 4 -147q276 76 725 249q44 18 235.5 100t343 138.5t330.5 106.5q49 16 103 16q123 0 123 -135q0 -79 -33 -168zM1368 1151q-1 20 -9.5 348.5t-25.5 526t-59 313.5q-71 -25 -186 -151t-243.5 -291t-226.5 -291
q-127 -156 -205.5 -277t-172.5 -297t-105 -196q82 41 277.5 116t451.5 125q167 33 262 44.5t242 29.5z" />
    <glyph glyph-name="divide" unicode="&#xf7;" horiz-adv-x="2089" 
d="M1298 2421q-55 -164 -164.5 -278.5t-240.5 -114.5q-250 0 -250 221q0 65 25 143q88 274 180 274q21 0 55.5 30t69 59.5t55.5 29.5q129 0 212 -61.5t83 -175.5q0 -61 -25 -127zM1839 1884q21 -121 21 -160q0 -59 -33 -188q0 -98 -139.5 -140t-391 -68t-317.5 -46
q-57 -17 -193.5 -64t-211.5 -67.5t-140 -20.5q-83 0 -135 46q-70 129 -70 290q0 76 21 185q51 60 170.5 88.5t333.5 48.5t311 35q76 12 301 75.5t313 63.5q116 0 160 -78zM1360 733q-57 -168 -165 -280.5t-241 -112.5q-115 0 -182 57t-67 164q0 63 24 144q89 274 180 274
q23 0 89.5 59.5t91.5 59.5q127 0 210.5 -61.5t83.5 -176.5q0 -59 -24 -127z" />
    <glyph glyph-name="quoteleft" unicode="&#x2018;" 
d="M655 3215q69 -146 89 -262.5t52.5 -343t96.5 -455.5q20 -75 20 -114q0 -85 -53 -117t-168 -55q-53 -21 -90 -21q-59 0 -96 43.5t-59 116t-55.5 252t-35.5 190.5q-33 174 -98 390t-65 311q5 81 59.5 106t222.5 49q20 -12 87.5 -33.5t92.5 -56.5z" />
    <glyph glyph-name="quoteright" unicode="&#x2019;" 
d="M950 3088q-14 -162 -57.5 -278.5t-127 -327.5t-138.5 -430q-47 -180 -164 -180q-43 0 -156 33q-151 22 -151 155q0 57 20 129.5t52.5 160.5t82.5 226q55 155 90.5 314t56 238.5t58.5 136.5q39 61 102 61q38 0 222 -66q14 -26 59.5 -76t50.5 -96z" />
    <glyph glyph-name="quotedblleft" unicode="&#x201c;" horiz-adv-x="1884" 
d="M741 2793q144 -724 144 -950q-4 -57 -25.5 -75t-106 -27.5t-126.5 -16.5q-33 20 -98 26t-91 40q-66 142 -79.5 309.5t-30 409t-78.5 465.5q-21 79 -21 114q0 86 50 115t172 57q66 25 110 25q60 0 87.5 -49.5t46 -160.5t46.5 -282zM1331 3162q76 -142 92.5 -255t41.5 -307
t100 -421q24 -73 24 -123q0 -79 -45 -107.5t-168 -68.5q-58 -25 -90 -25q-70 0 -106.5 68t-63.5 188.5t-72 325.5q-35 141 -82 301t-60 215.5t-13 130.5q0 84 43 106.5t211 57.5q20 -10 90.5 -30.5t97.5 -55.5z" />
    <glyph glyph-name="quotedblright" unicode="&#x201d;" horiz-adv-x="1884" 
d="M1532 2613q-166 -476 -227 -640t-121 -253q-36 -53 -74 -53q-18 0 -33.5 6t-75.5 31.5t-100 40.5q-19 36 -73 73t-58 78q12 129 51.5 229.5t128 272.5t144.5 302.5t102 314.5q47 180 164 180q36 0 156 -33q159 -22 159 -119q0 -33 -14.5 -80.5t-58.5 -161.5t-70 -188z
M918 3117q-5 -158 -50.5 -270t-119 -286t-121.5 -411q-42 -192 -164 -192q-19 0 -148 29q-147 16 -147 139q0 49 17.5 115.5t54 177.5t67.5 215q43 148 82.5 310.5t54 211.5t52.5 117q39 69 98 69q34 0 205 -57q16 -26 64 -75t55 -93z" />
    <glyph glyph-name="bullet" unicode="&#x2022;" horiz-adv-x="1442" 
d="M1204 1569q-54 -156 -145 -291.5t-210 -217t-251 -81.5q-176 0 -278.5 84.5t-102.5 243.5q0 83 41 217q27 86 70.5 158t90.5 129t89 106q71 90 152.5 145.5t138.5 55.5q188 0 315 -94t127 -267q0 -86 -37 -188z" />
    <glyph glyph-name="ellipsis" unicode="&#x2026;" horiz-adv-x="4792" 
d="M4022 418q-55 -155 -186.5 -278.5t-271.5 -123.5q-132 0 -218 58.5t-86 167.5q0 51 25 123q41 109 108 210t117 101q23 0 110 41t116 41q132 0 221.5 -57.5t89.5 -168.5q0 -48 -25 -114zM2327 328q-61 -164 -183 -279t-268 -115q-270 0 -270 213q0 70 28 144
q95 278 193 278q21 0 94.5 55.5t106.5 55.5q141 0 232 -58t91 -171q0 -55 -24 -123zM729 373q-63 -166 -180 -286t-258 -120q-117 0 -185.5 57t-68.5 160q0 62 33 152q96 262 180 262q25 0 140 53.5t142 53.5q230 0 230 -177q0 -59 -33 -155z" />
    <glyph glyph-name="trademark" unicode="&#x2122;" horiz-adv-x="3150" 
d="M2941 1372q-42 -20 -86 -20q-130 0 -164 139q-72 284 -115 623q-132 -351 -163 -459q-38 -138 -91 -180q-68 -62 -168 -62q-116 0 -188 111q-16 102 -35 188.5t-47 197.5t-57 232q-41 -122 -86 -287q-16 -60 -35 -174.5t-59 -242.5q-83 -107 -181 -107q-41 0 -65 8
q-144 5 -144 258q46 206 98.5 391.5t137 453.5t129.5 417q11 108 71 160.5t142 52.5q78 0 146 -43t83 -100q9 -25 9 -70q0 -319 81 -664q31 94 105 283.5t129 347.5q10 32 23 96t30 103.5t58 79.5q55 37 139 37q85 0 155.5 -36t90.5 -104q12 -36 12 -77q0 -18 -4 -64t-4 -80
q4 -126 11 -209.5t18.5 -179t27.5 -233.5q30 -271 94 -541q8 -29 8 -86q-7 -123 -106 -160zM1307 2695q-64 -21 -192.5 -23t-188.5 -18q-37 -303 -37 -758q0 -261 20 -385q-31 -183 -159 -192q-149 0 -193 147q-5 172 -15 426.5t-10 388.5q0 105 9 308q-46 -9 -145 -41
t-158 -41q-98 0 -153.5 79.5t-55.5 133.5q0 81 21.5 108t96.5 76q672 205 1061 205q107 0 156 -8q39 -29 50 -66.5t11 -130.5q-20 -174 -118 -209z" />
    <glyph glyph-name="apple" unicode="&#xf000;" horiz-adv-x="6124" 
d="M6058 2826h-16v111l-41 -111h-13l-41 111h-4v-111h-12v127h25l41 -102l36 102h25v-127zM5915 2941h-41v-115h-17v115h-37v12h95v-12zM5763 2920q33 -44 33 -94q0 -97 -74 -155q-57 -51 -115.5 -68.5t-162.5 -22.5q53 35 61 82q-43 -61 -221 -106v-62h-148v-819h-86v-16
q0 -750 -688 -1176q0 -189 -115 -353t-344 -216q-32 0 -45 25q0 36 13 49q87 52 114 172q0 29 -2.5 78t-9.5 65q-502 -180 -1159 -180q-918 0 -1507 344v-254q-265 101 -481 266.5t-348.5 414t-133.5 568.5q0 157 48 317.5t125 285.5t163 196q-65 14 -152 70q23 -39 62 -62
q-213 0 -311 94q-58 64 -58 136q0 83 58 127q38 32 106 32q63 0 107 -32q48 36 106 36q45 0 94 -28q58 -30 58 -94q0 -41 -20 -79t-38 -48q16 -74 53 -86q7 4 20 16t21 16q126 194 324 348t456.5 262t577 165t670.5 57q259 0 487.5 -27t438.5 -81.5t392 -134t329 -183.5
q57 2 170.5 7t160.5 5q123 0 297 4t187 4q-13 25 -13 54q0 75 54 110q44 29 94 29q62 0 115 -45q37 45 118 45q77 0 119 -58zM5718 2826q-3 44 -31 63t-55 19q-25 0 -49.5 -20.5t-24.5 -48.5q0 -82 66 -82q0 -52 -41 -86q34 15 84.5 55.5t50.5 99.5zM5509 2826
q0 48 -29.5 67t-60.5 19q-21 0 -46 -20t-28 -49q0 -78 70 -86q0 -55 -45 -82q35 15 87 54.5t52 96.5zM5341 2720q-36 18 -57 53v-123q44 39 57 70zM4809 2425v57l-37 -4q32 -42 37 -53zM5198 2576v123h-455v-123h148v-823l159 -4v827h148zM4669 2568v127l-323 -12v-954
l147 8v233l164 8v140l-164 -13l17 455zM4305 1724l-221 938l-213 -16l-176 -995l151 24l25 135l245 21l37 -119zM3690 2032q-31 -103 -114 -181l61 -61zM3654 1647l-193 200q48 38 120.5 142.5t72.5 263.5q-11 207 -141.5 275.5t-321.5 68.5v-1036l143 28l-4 176l160 -147z
M3097 1761v590q-124 -37 -196 -122.5t-75 -205.5q0 -109 78.5 -184t192.5 -78zM3121 1548v140q-116 0 -238 66t-130 274q0 202 130.5 296.5t217.5 116.5v152q-127 -25 -317.5 -153.5t-190.5 -432.5q8 -258 177 -358.5t351 -100.5zM4977 1659q0 1 -2 6t-2 10h-164v611
q-52 92 -135 188l-86 -4v-283l151 8v-299l-164 -12v-229l-467 -41l-45 127l-102 -12l-33 -127q-130 -11 -450 -74l-50 41v-53q6 0 -258 -50q-48 -12 -106 -12q-142 0 -275 68t-196 174v-357l-590 -192v323l-70 -159l-73 147v-364l-312 -127l4 155q-127 -270 -295 -270
q-178 0 -273.5 196t-102.5 422q0 212 88.5 428t283.5 216q205 0 291 -238v303l254 86l123 -197l82 250l586 213v-213q66 146 218.5 244.5t334.5 116.5q82 8 114 8q391 0 484 -344l61 381l348 20l107 -442v451q28 0 73 4q-574 356 -1515 356q-387 0 -726.5 -68t-610.5 -200.5
t-457 -321.5q-9 -6 -33 -33q159 79 258 99v-402q-164 -32 -285.5 -145.5t-186 -274t-64.5 -325.5q0 -290 185 -507t413 -308v-70q574 -356 1507 -356q666 0 1163 184q37 0 49 -16q39 -70 45 -156q0 -20 -8 -70q-20 -61 -41 -102q132 69 195 189.5t63 269.5q0 25 21 41
q331 193 503.5 478.5t172.5 639.5zM2503 1384v1016l-148 -49v-1016zM2232 1303v1011l-159 -57l-148 -389l-168 299l-131 -49v-1033l148 54v659l159 -250l156 373l-4 -668zM668 2515q-3 30 -26.5 50t-47.5 20q-81 0 -86 -86q0 -55 50.5 -96t84.5 -56q-45 27 -45 82
q70 7 70 86zM459 2511q-3 30 -27.5 49.5t-50.5 19.5q-27 0 -54.5 -18.5t-27.5 -62.5q0 -57 49 -99t82 -57q-41 34 -41 82q70 7 70 86zM1548 1450q0 210 -69 396t-226 186q-153 0 -228 -192.5t-75 -364.5q8 -177 90 -357t217 -180q76 0 143.5 81t107.5 201t40 230zM1229 348
v217q-238 84 -422 323t-184 554q10 409 211 590.5t333 220.5v221q-82 -26 -247.5 -123t-329.5 -328t-164 -589q1 -350 180 -592t357 -351.5t266 -142.5zM4092 1946l-197 -17l90 520zM3518 2228q0 -104 -70.5 -180t-117.5 -106v475q44 -7 112.5 -48t75.5 -141zM1397 1495
q0 -173 -37 -281.5t-107 -111.5q-64 0 -109.5 137t-45.5 248q4 140 44 272.5t107 132.5q72 0 110 -112t38 -285zM4018 2003l-24 111l-21 -115zM3400 2118q41 34 41 90q0 59 -41 78v-168zM1307 1491q0 278 -58 278q-50 0 -61 -282q0 -73 20 -169.5t41 -96.5q58 0 58 270z" />
  </font>
</defs>
</svg>
